<?xml version="1.0" encoding="UTF-8"?>
<svg version="1.1" xmlns="http://www.w3.org/2000/svg" width="480" height="284">
<path d="M0 0 C1.25619141 -0.02900391 2.51238281 -0.05800781 3.80664062 -0.08789062 C22.62505159 -0.21418869 37.73532563 7.52769494 51.18359375 20.33203125 C64.32726093 34.1418492 70.49057779 51.9833632 70.27734375 70.9375 C69.04499116 90.29663886 60.99133943 104.62460928 49.0625 119.3125 C50.0525 120.7975 50.0525 120.7975 51.0625 122.3125 C55.55419225 116.59113366 59.4705392 110.74436904 63.04956055 104.42263794 C64.99402916 101.00162924 67.01008484 97.62490476 69.02880859 94.24731445 C70.05270045 92.49665822 71.04671199 90.72818714 72.01025391 88.94360352 C72.48769043 88.06567139 72.96512695 87.18773926 73.45703125 86.28320312 C73.86864502 85.50408569 74.28025879 84.72496826 74.7043457 83.92224121 C77.35783809 80.02391587 80.81415576 76.73101166 84.0625 73.3125 C91.9825 73.3125 99.9025 73.3125 108.0625 73.3125 C108.0625 111.5925 108.0625 149.8725 108.0625 189.3125 C102.4525 189.3125 96.8425 189.3125 91.0625 189.3125 C90.7325 155.6525 90.4025 121.9925 90.0625 87.3125 C78.58415434 105.96285518 78.58415434 105.96285518 67.125 124.625 C62.33173659 132.36933977 57.34287865 139.89338675 52.0625 147.3125 C51.4025 148.3025 50.7425 149.2925 50.0625 150.3125 C47.43494252 149.94669584 46.3052398 149.58308707 44.50683594 147.57836914 C44.02504883 146.84223389 43.54326172 146.10609863 43.046875 145.34765625 C42.51835937 144.54779297 41.98984375 143.74792969 41.4453125 142.92382812 C40.90648437 142.08271484 40.36765625 141.24160156 39.8125 140.375 C39.25820313 139.53775391 38.70390625 138.70050781 38.1328125 137.83789062 C34.0625 131.60710437 34.0625 131.60710437 34.0625 129.3125 C33.32128906 129.72242188 32.58007812 130.13234375 31.81640625 130.5546875 C21.78434302 135.68737101 16.28176551 135.87493935 4.0625 137.3125 C4.0625 154.4725 4.0625 171.6325 4.0625 189.3125 C0.4325 189.3125 -3.1975 189.3125 -6.9375 189.3125 C-6.9375 171.8225 -6.9375 154.3325 -6.9375 136.3125 C-9.9075 135.9825 -12.8775 135.6525 -15.9375 135.3125 C-35.18562277 130.19376845 -49.89624211 118.31913638 -59.9375 101.3125 C-62.96955543 95.15225079 -65.11218087 88.90984178 -66.9375 82.3125 C-78.67994088 81.43630645 -78.67994088 81.43630645 -88.9375 86.3125 C-93.41225371 90.78725371 -94.6750202 95.47771819 -95.25 101.6875 C-94.39254072 111.63402768 -90.10470143 117.45809863 -82.9375 124.3125 C-82.2775 124.6425 -81.6175 124.9725 -80.9375 125.3125 C-80.9375 125.9725 -80.9375 126.6325 -80.9375 127.3125 C-87.32132308 126.61403465 -93.54063408 125.50079232 -99.8125 124.125 C-100.76125 123.94130859 -101.71 123.75761719 -102.6875 123.56835938 C-105.24943201 122.99721641 -107.55031036 122.40398617 -109.9375 121.3125 C-114.0999854 114.41206911 -112.67922595 102.67822927 -111.35546875 94.88671875 C-108.91126451 86.28178052 -103.90609424 79.53148255 -96.375 74.65234375 C-93.93393927 73.37599645 -91.50632663 72.30283889 -88.9375 71.3125 C-87.865 70.879375 -86.7925 70.44625 -85.6875 70 C-79.79515034 68.91973589 -73.91012472 69.16339148 -67.9375 69.3125 C-68.0303125 67.7965625 -68.0303125 67.7965625 -68.125 66.25 C-68.08647889 55.38704807 -65.13053248 44.7904937 -59.9375 35.3125 C-59.44507813 34.41015625 -58.95265625 33.5078125 -58.4453125 32.578125 C-48.71615022 16.09906544 -34.20233731 6.26933926 -16.15185547 0.76831055 C-10.88741548 -0.31533989 -5.35307325 0.04008792 0 0 Z M-9.9375 5.3125 C-9.9375 5.9725 -9.9375 6.6325 -9.9375 7.3125 C-5.34116451 8.1743129 -1.70124287 8.26423985 2.9765625 7.57421875 C10.63826238 6.61291933 18.41943677 7.58828419 26.0625 8.3125 C20.64690821 2.89690821 9.44029164 2.69709091 2.1328125 2.23046875 C-2.26882299 2.3480697 -5.95635474 3.49166612 -9.9375 5.3125 Z M-14.9375 9.3125 C-10.9375 10.3125 -10.9375 10.3125 -10.9375 10.3125 Z M-2.9375 10.3125 C-2.6075 11.9625 -2.2775 13.6125 -1.9375 15.3125 C-0.76574219 15.67601562 0.40601563 16.03953125 1.61328125 16.4140625 C9.84045034 19.0267801 17.50790189 21.63584402 24.8984375 26.2109375 C27.25190903 27.61492439 27.25190903 27.61492439 31.0625 27.3125 C32.04747223 23.24948954 32.37183684 19.48854728 32.0625 15.3125 C29.10152978 11.15905713 24.32513476 10.88054709 19.62109375 9.87890625 C12.05599891 8.67480224 4.58228586 8.94526621 -2.9375 10.3125 Z M-24.5625 11.8125 C-25.01625 12.3075 -25.47 12.8025 -25.9375 13.3125 C-24.6175 13.3125 -23.2975 13.3125 -21.9375 13.3125 C-21.6075 12.3225 -21.2775 11.3325 -20.9375 10.3125 C-23.06114481 10.08640663 -23.06114481 10.08640663 -24.5625 11.8125 Z M-6.9375 11.3125 C-8.9175 11.9725 -10.8975 12.6325 -12.9375 13.3125 C-12.9375 13.6425 -12.9375 13.9725 -12.9375 14.3125 C-9.9675 14.6425 -6.9975 14.9725 -3.9375 15.3125 C-4.9275 13.9925 -5.9175 12.6725 -6.9375 11.3125 Z M-38.9375 15.3125 C-40.31982443 16.93876404 -41.65687515 18.6050002 -42.9375 20.3125 C-39.77634224 18.94266497 -38.9447908 18.3234362 -36.9375 15.3125 C-37.5975 15.3125 -38.2575 15.3125 -38.9375 15.3125 Z M-31.9375 15.3125 C-27.9375 16.3125 -27.9375 16.3125 -27.9375 16.3125 Z M36.0625 16.3125 C34.32289599 21.36948839 33.11567339 25.93667011 33.0625 31.3125 C35.04452254 34.47559076 37.28892044 36.3553774 40.15234375 38.73828125 C48.36864803 46.00612624 52.84374125 56.17571155 56.08984375 66.44921875 C56.97621957 69.46214142 56.97621957 69.46214142 59.0625 72.3125 C62.72103159 64.16246758 63.77188686 57.20890899 63.0625 48.3125 C63.01480469 47.60480469 62.96710938 46.89710937 62.91796875 46.16796875 C61.25785227 35.65389771 51.22554607 25.3603042 43.0625 19.3125 C39.81074299 17.02015155 39.81074299 17.02015155 36.0625 16.3125 Z M-14.9375 18.3125 C-12.44797079 20.97985273 -10.30341866 22.86996343 -6.9375 24.3125 C-4.6601499 21.49740007 -4.6601499 21.49740007 -4.9375 18.3125 C-8.2375 18.3125 -11.5375 18.3125 -14.9375 18.3125 Z M-22.9375 19.3125 C-27.02191676 27.47018984 -27.02191676 27.47018984 -28.9375 36.3125 C-21.25747704 35.38255985 -16.05920809 33.01468158 -9.9375 28.3125 C-13.32622633 24.72443683 -16.69891332 21.85565201 -20.9375 19.3125 C-21.5975 19.3125 -22.2575 19.3125 -22.9375 19.3125 Z M-1.9375 19.3125 C-4.1388866 23.11677492 -4.1388866 23.11677492 -4.9375 27.3125 C-3.48100433 28.70591901 -3.48100433 28.70591901 -1.5625 30.1875 C3.15004588 34.17052365 6.91038644 38.76075404 10.765625 43.54296875 C12.75993065 45.94766723 14.81216112 48.14990369 17.0625 50.3125 C23.52908539 42.91029064 23.52908539 42.91029064 28.0625 34.3125 C27.9067627 32.24574013 27.9067627 32.24574013 27.0625 30.3125 C24.58211824 28.75741107 22.25754977 27.48633436 19.625 26.25 C18.90159424 25.90001953 18.17818848 25.55003906 17.43286133 25.18945312 C11.28948232 22.28105303 4.96047454 19.3125 -1.9375 19.3125 Z M-38.9375 22.3125 C-38.6075 22.9725 -38.2775 23.6325 -37.9375 24.3125 C-37.6075 23.6525 -37.2775 22.9925 -36.9375 22.3125 C-37.5975 22.3125 -38.2575 22.3125 -38.9375 22.3125 Z M-35.5625 26.125 C-36.37976563 26.83269531 -37.19703125 27.54039063 -38.0390625 28.26953125 C-40.27785984 30.21396063 -40.27785984 30.21396063 -39.9375 33.3125 C-36.98372502 35.68230013 -36.98372502 35.68230013 -32.9375 35.3125 C-32.26692113 33.5222939 -31.6011531 31.73028511 -30.9375 29.9375 C-30.56625 28.93976562 -30.195 27.94203125 -29.8125 26.9140625 C-28.83123723 24.45401939 -28.83123723 24.45401939 -28.9375 22.3125 C-32.01549236 22.3125 -33.29597943 24.1283033 -35.5625 26.125 Z M-52.9375 30.3125 C-55.45787406 34.11734735 -57.23706478 38.08601631 -58.9375 42.3125 C-59.26621094 43.11300781 -59.59492188 43.91351563 -59.93359375 44.73828125 C-61.9503911 50.17108942 -62.58855973 55.54896941 -62.9375 61.3125 C-61.04139358 58.46834037 -59.97319739 55.9852987 -58.75 52.8125 C-55.72835918 45.45894934 -52.0335341 37.91879973 -46.0625 32.5 C-43.46279327 29.82383131 -43.19295323 27.97399629 -42.9375 24.3125 C-46.52461279 24.3125 -50.43760296 28.08622353 -52.9375 30.3125 Z M-7.9375 29.3125 C-8.51757812 29.72242187 -9.09765625 30.13234375 -9.6953125 30.5546875 C-16.39346039 35.17486212 -21.79538881 37.33544666 -29.9375 38.3125 C-32.40673057 49.95315839 -32.83999305 61.547483 -30.9375 73.3125 C-14.82851605 72.32623568 1.4601611 64.36234657 13.0625 53.3125 C11.67088098 49.14508477 9.73042321 46.51833337 6.75 43.3125 C5.94433594 42.44367187 5.13867188 41.57484375 4.30859375 40.6796875 C0.41158042 36.57257433 -3.44936311 32.77477703 -7.9375 29.3125 Z M-42.9375 33.3125 C-50.79219789 41.42981697 -61.08150731 54.52000259 -60.90625 66.4375 C-59.32639974 69.49527469 -57.07917237 70.07292859 -53.9375 71.3125 C-51.251079 72.05048286 -48.55499318 72.57912922 -45.8125 73.0625 C-45.10996094 73.20042969 -44.40742188 73.33835938 -43.68359375 73.48046875 C-39.92205633 74.17020246 -37.71924954 74.25793739 -33.9375 73.3125 C-33.9375 61.7625 -33.9375 50.2125 -33.9375 38.3125 C-39.11760841 35.1634288 -39.11760841 35.1634288 -41.9375 35.3125 C-42.2675 34.6525 -42.5975 33.9925 -42.9375 33.3125 Z M31.0625 35.3125 C29.64169556 37.3616621 29.64169556 37.3616621 28.25 39.9375 C25.32240228 44.9910061 22.1995422 49.1754578 18.0625 53.3125 C18.619375 54.19808594 19.17625 55.08367188 19.75 55.99609375 C27.49111218 68.49150911 33.91608432 81.53229485 39.0625 95.3125 C44.11284625 93.09664652 47.36325351 89.29630391 51.0625 85.3125 C51.62324219 84.75304687 52.18398438 84.19359375 52.76171875 83.6171875 C55.02722181 81.04754842 56.04960406 79.32805494 56.09375 75.8515625 C53.78553996 60.35992205 45.10761315 45.24787846 33.0625 35.3125 C32.4025 35.3125 31.7425 35.3125 31.0625 35.3125 Z M11.5625 58.25 C5.21936858 63.27934368 -1.97995162 66.74351577 -9.17919922 70.37036133 C-11.1905498 71.41189487 -11.1905498 71.41189487 -13.9375 73.3125 C-12.67643433 73.21654541 -12.67643433 73.21654541 -11.38989258 73.11865234 C12.00005467 71.67092487 12.00005467 71.67092487 18.67871094 76.01367188 C22.72835394 80.12561708 25.41150251 84.90376009 27.92236328 90.06347656 C29.64312689 93.45783939 31.69484545 96.33396662 34.0625 99.3125 C34.7225 99.3125 35.3825 99.3125 36.0625 99.3125 C35.52531299 94.03582764 34.20517077 89.65023297 32 84.8125 C31.54016724 83.78406982 31.54016724 83.78406982 31.07104492 82.73486328 C26.77127703 73.27342489 22.08797504 63.80235563 16.0625 55.3125 C14.23813391 55.3125 12.89274002 57.12185414 11.5625 58.25 Z M65.0625 62.3125 C64.79695312 63.13234375 64.53140625 63.9521875 64.2578125 64.796875 C63.72800781 66.41335937 63.72800781 66.41335937 63.1875 68.0625 C62.83945312 69.12984375 62.49140625 70.1971875 62.1328125 71.296875 C61.0625 74.3125 61.0625 74.3125 59.9921875 76.16015625 C58.49385704 79.62898012 58.39769432 83.26246877 58.0625 87 C57.44367762 93.23947978 56.63958293 99.22946583 55.0625 105.3125 C65.60357155 93.12866405 67.50621722 77.81795165 67.0625 62.3125 C66.4025 62.3125 65.7425 62.3125 65.0625 62.3125 Z M-44.9375 77.3125 C-45.2675 81.2725 -45.5975 85.2325 -45.9375 89.3125 C-48.63932292 88.04296875 -51.34114583 86.7734375 -54.04296875 85.50390625 C-56.70381586 84.40868578 -59.10534755 83.76295204 -61.9375 83.3125 C-60.82852709 95.73299659 -56.30814346 102.3001517 -47.25 110.91796875 C-37.7743477 118.61693624 -25.51790737 118.88911779 -13.9375 118.3125 C-14.36160156 117.68085937 -14.78570312 117.04921875 -15.22265625 116.3984375 C-22.56009938 105.20682094 -28.04012801 93.93217864 -31.9921875 81.19921875 C-32.65287274 78.44648197 -32.65287274 78.44648197 -33.9375 77.3125 C-37.6066577 77.16939713 -41.26465441 77.27028338 -44.9375 77.3125 Z M-28.9375 78.3125 C-27.676928 89.8652716 -22.41044265 100.76198255 -15.9375 110.3125 C-15.40769531 111.10011719 -14.87789062 111.88773438 -14.33203125 112.69921875 C-12.29149842 115.63754687 -12.29149842 115.63754687 -9.9375 118.3125 C-8.9475 118.3125 -7.9575 118.3125 -6.9375 118.3125 C-6.83808904 114.2924737 -6.76577937 110.27293037 -6.71777344 106.25195312 C-6.69774681 104.88626632 -6.67051668 103.52066431 -6.63574219 102.15527344 C-6.58683568 100.18462898 -6.56658653 98.21334017 -6.546875 96.2421875 C-6.52592773 95.05866699 -6.50498047 93.87514648 -6.48339844 92.65576172 C-7.03524032 88.59290002 -8.37470267 86.47759512 -10.9375 83.3125 C-16.55498831 80.10250668 -22.59586106 79.28725463 -28.9375 78.3125 Z M55.0625 84.3125 C52.75878052 86.76853151 50.51288647 89.26713164 48.27539062 91.78320312 C45.71279041 94.6286206 43.25650139 97.15029003 40.0625 99.3125 C40.29184409 101.23174787 40.54684343 103.1479406 40.8125 105.0625 C40.95171875 106.12984375 41.0909375 107.1971875 41.234375 108.296875 C42.1722748 111.71224598 43.38166918 113.06757663 46.0625 115.3125 C52.39913522 105.955402 56.96399722 95.80658958 56.0625 84.3125 C55.7325 84.3125 55.4025 84.3125 55.0625 84.3125 Z M4.0625 85.3125 C4.0625 95.2125 4.0625 105.1125 4.0625 115.3125 C12.09473007 112.39693644 12.09473007 112.39693644 20.0625 109.3125 C19.65 108.66925781 19.2375 108.02601562 18.8125 107.36328125 C16.12508227 103.15819234 13.44231016 98.95300539 10.8515625 94.6875 C10.490625 94.09412842 10.1296875 93.50075684 9.7578125 92.8894043 C8.72362791 91.18455666 7.69376573 89.4770893 6.6640625 87.76953125 C6.13554687 86.95871094 5.60703125 86.14789063 5.0625 85.3125 C4.7325 85.3125 4.4025 85.3125 4.0625 85.3125 Z M37.0625 102.3125 C38.0625 104.3125 38.0625 104.3125 38.0625 104.3125 Z M17.24609375 112.84375 C16.48232422 113.15957031 15.71855469 113.47539063 14.93164062 113.80078125 C14.12919922 114.13464844 13.32675781 114.46851562 12.5 114.8125 C11.69369141 115.14636719 10.88738281 115.48023437 10.05664062 115.82421875 C8.05794484 116.65208091 6.06013943 117.48209209 4.0625 118.3125 C4.0625 121.9425 4.0625 125.5725 4.0625 129.3125 C11.27147694 132.5893077 16.33959892 132.9506531 23.85546875 130.34375 C26.28442273 129.3845016 28.68022596 128.38178793 31.0625 127.3125 C29.63036488 123.37592758 27.75917846 120.02318644 25.5 116.5 C24.87996094 115.52417969 24.25992188 114.54835938 23.62109375 113.54296875 C23.10675781 112.80691406 22.59242188 112.07085937 22.0625 111.3125 C20.33014112 111.3125 18.83032344 112.18658806 17.24609375 112.84375 Z M-42.9375 117.3125 C-33.93146088 127.51934434 -20.14358997 132.42880925 -6.9375 134.3125 C-6.85628076 132.70917209 -6.79820866 131.10465974 -6.75 129.5 C-6.71519531 128.60667969 -6.68039062 127.71335937 -6.64453125 126.79296875 C-6.72446144 124.3031553 -6.72446144 124.3031553 -8.18603516 122.68286133 C-10.36286306 120.97969224 -11.51363115 120.93186277 -14.25390625 120.90625 C-15.09638916 120.88618896 -15.93887207 120.86612793 -16.80688477 120.84545898 C-17.69561279 120.83458252 -18.58434082 120.82370605 -19.5 120.8125 C-26.06690914 120.62544365 -31.94853885 120.28120322 -38.16015625 117.93359375 C-40.09572006 117.14755585 -40.09572006 117.14755585 -42.9375 117.3125 Z M4.0625 132.3125 C4.0625 132.9725 4.0625 133.6325 4.0625 134.3125 C5.7125 134.3125 7.3625 134.3125 9.0625 134.3125 C8.4025 133.6525 7.7425 132.9925 7.0625 132.3125 C6.0725 132.3125 5.0825 132.3125 4.0625 132.3125 Z " fill="#0A4F94" transform="translate(263.9375,-0.3125)"/>
<path d="M0 0 C15.18 0 30.36 0 46 0 C49.16722041 6.9678849 52.22107263 13.85538657 54.98828125 20.97265625 C55.33634323 21.86238632 55.68440521 22.75211639 56.04301453 23.66880798 C56.76790305 25.52430097 57.49126751 27.38039007 58.21313477 29.23706055 C59.32280634 32.08898796 60.43944359 34.93812273 61.55664062 37.78710938 C62.26343633 39.59879629 62.96983151 41.41063953 63.67578125 43.22265625 C64.01007645 44.07465103 64.34437164 44.92664581 64.688797 45.80445862 C65.14508736 46.98225136 65.14508736 46.98225136 65.6105957 48.18383789 C66.01433159 49.21994957 66.01433159 49.21994957 66.42622375 50.2769928 C67 52 67 52 67 54 C67.57758057 53.98187256 68.15516113 53.96374512 68.75024414 53.94506836 C94.26595176 53.50414323 122.92995964 60.0848524 146 71 C146.62261719 71.28955566 147.24523437 71.57911133 147.88671875 71.87744141 C158.58476205 76.92484657 170.73113263 83.55337528 175.41796875 95.07421875 C177.5137448 102.008565 177.38033563 107.45199886 174 114 C162.97941391 130.64627794 138.70051094 139.67354998 120 144 C118.68 144 117.36 144 116 144 C116 143.34 116 142.68 116 142 C116.58378418 141.764021 117.16756836 141.52804199 117.76904297 141.28491211 C133.19597168 135.106965 133.19597168 135.106965 147 126 C147.9075 125.401875 148.815 124.80375 149.75 124.1875 C154.67204435 119.4021791 158.33688183 113.80203343 158.625 106.8125 C158.28748204 102.01224451 156.95828463 98.75612503 154 95 C153.59523437 94.44957031 153.19046875 93.89914063 152.7734375 93.33203125 C134.99977387 72.56440824 97.08635622 68.70822139 72 65 C74.14831284 70.52859288 76.29890127 76.05629369 78.45141602 81.58325195 C79.18020061 83.45541647 79.9084106 85.3278048 80.63598633 87.20043945 C81.69453519 89.92461384 82.75482799 92.6480985 83.81640625 95.37109375 C84.16474518 96.26460541 84.51308411 97.15811707 84.87197876 98.07870483 C87.47098797 104.71618728 90.15872632 111.31368351 92.94032288 117.8768158 C95 122.78768548 95 122.78768548 95 125 C90.61410123 124.57210744 87.7301107 123.46817977 84.1015625 120.9375 C81.1534261 119.50014652 81.1534261 119.50014652 74 119 C67.07 100.85 60.14 82.7 53 64 C47.92123643 63.36515455 43.54591718 62.87727041 38.53125 62.90234375 C37.38398437 62.90556641 36.23671875 62.90878906 35.0546875 62.91210938 C33.29511719 62.92467773 33.29511719 62.92467773 31.5 62.9375 C30.29601562 62.94201172 29.09203125 62.94652344 27.8515625 62.95117188 C24.90098927 62.9628805 21.95052141 62.97928005 19 63 C17.33753194 66.96042415 15.67549951 70.92103079 14.01379395 74.8817749 C13.42267903 76.29055412 12.83145235 77.69928646 12.2401123 79.10797119 C9.12793082 86.52198444 6.02096277 93.93793288 2.9453125 101.3671875 C2.48753418 102.47191406 2.02975586 103.57664062 1.55810547 104.71484375 C0.69825291 106.7920986 -0.15955609 108.87020074 -1.01513672 110.94921875 C-1.39686035 111.87089844 -1.77858398 112.79257813 -2.171875 113.7421875 C-2.5028418 114.5451123 -2.83380859 115.34803711 -3.17480469 116.17529297 C-4 118 -4 118 -5 119 C-7.18639453 119.07258946 -9.37500389 119.08373783 -11.5625 119.0625 C-13.35880859 119.04896484 -13.35880859 119.04896484 -15.19140625 119.03515625 C-16.58166016 119.01775391 -16.58166016 119.01775391 -18 119 C-17.34813063 114.91444665 -16.03712823 111.46950835 -14.375 107.6875 C-14.11188522 107.0847525 -13.84877045 106.482005 -13.5776825 105.86099243 C-12.7229197 103.90533827 -11.8614621 101.95271108 -11 100 C-10.41066399 98.65437495 -9.82188157 97.30850732 -9.23364258 95.96240234 C-8.34526224 93.9297383 -7.45650914 91.8972465 -6.56587219 89.86557007 C-3.90680262 83.79943648 -1.28980958 77.71569481 1.3125 71.625 C1.69083984 70.74070312 2.06917969 69.85640625 2.45898438 68.9453125 C3.30659536 66.96380068 4.1534068 64.98194687 5 63 C-10.02468561 64.5411755 -24.96243971 66.30107646 -39.85888672 68.81738281 C-41.39826904 69.0702002 -41.39826904 69.0702002 -42.96875 69.328125 C-43.87044922 69.4818457 -44.77214844 69.63556641 -45.70117188 69.79394531 C-48 70 -48 70 -51 69 C-51 68.34 -51 67.68 -51 67 C-39.42162154 63.5004258 -27.7984887 60.36130854 -16 57.6875 C-14.35680786 57.30634033 -14.35680786 57.30634033 -12.68041992 56.91748047 C-5.13191893 55.24559235 2.28167803 54.40186435 10 54 C10.35707031 52.84113281 10.71414062 51.68226562 11.08203125 50.48828125 C12.55673583 46.06069965 14.30690331 41.77059858 16.13671875 37.48046875 C16.4224173 36.81008575 16.70811584 36.13970276 17.00247192 35.44900513 C18.19981199 32.64767416 19.40181139 29.84841463 20.6105957 27.05200195 C21.5005917 24.98912093 22.38168721 22.92261625 23.26171875 20.85546875 C23.6741407 19.91165596 23.6741407 19.91165596 24.09489441 18.94877625 C25.49046742 15.65573993 26 13.6592198 26 10 C24.7934375 9.73445313 23.586875 9.46890625 22.34375 9.1953125 C20.72915391 8.83859941 19.11457129 8.48182532 17.5 8.125 C16.70851563 7.95097656 15.91703125 7.77695313 15.1015625 7.59765625 C10.04529067 6.47864527 5.01857819 5.27766555 0 4 C0 2.68 0 1.36 0 0 Z M36 21 C34.14628755 25.25314753 32.29493592 29.50731157 30.44580078 33.76245117 C29.81592159 35.21097821 29.18538897 36.65922129 28.55419922 38.10717773 C27.64901055 40.18399601 26.74614808 42.2618117 25.84375 44.33984375 C25.55939087 44.99089584 25.27503174 45.64194794 24.98205566 46.31272888 C23.59213893 49.05836199 23.59213893 49.05836199 23 52 C31.58 52 40.16 52 49 52 C47.21158851 47.25822324 47.21158851 47.25822324 45.42211914 42.5168457 C44.0923515 38.97662163 42.7900852 35.43118291 41.55859375 31.85546875 C41.22637817 30.89568115 41.22637817 30.89568115 40.88745117 29.91650391 C40.2785497 28.14553579 39.67812612 26.37165955 39.078125 24.59765625 C38.27640339 21.86542237 38.27640339 21.86542237 36 21 Z " fill="#094F95" transform="translate(51,70)"/>
<path d="M0 0 C30.69 0 61.38 0 93 0 C93.33 7.26 93.66 14.52 94 22 C91.36 22 88.72 22 86 22 C85.86464844 21.31292969 85.72929687 20.62585938 85.58984375 19.91796875 C85.37457031 19.01691406 85.15929687 18.11585937 84.9375 17.1875 C84.74027344 16.29417969 84.54304688 15.40085937 84.33984375 14.48046875 C82.45081511 10.98328745 79.64812295 10.10995991 76 9 C72.33426317 8.59246045 72.33426317 8.59246045 68.53515625 8.70703125 C67.29386963 8.71452393 66.05258301 8.7220166 64.77368164 8.72973633 C63.2189917 8.75704834 61.66430176 8.78436035 60.0625 8.8125 C52.6065625 8.9053125 52.6065625 8.9053125 45 9 C44.67 23.52 44.34 38.04 44 53 C53.9 53 63.8 53 74 53 C74 56.63 74 60.26 74 64 C64.1 64 54.2 64 44 64 C44.495 84.295 44.495 84.295 45 105 C49.44957162 107.22478581 55.43909639 106.30991853 60.38330078 106.35009766 C61.86718512 106.36658167 63.35099257 106.39377152 64.83447266 106.43212891 C75.80265914 106.9193794 75.80265914 106.9193794 85.51806641 102.43457031 C87.70349394 100.31899005 89.58782948 98.14941858 91.375 95.6875 C92.54256638 94.09430684 93.7410294 92.52199498 95 91 C95.66 91 96.32 91 97 91 C96.86185777 94.9794733 96.71320326 98.95848415 96.5625 102.9375 C96.52318359 104.07380859 96.48386719 105.21011719 96.44335938 106.38085938 C96.40146484 107.46044922 96.35957031 108.54003906 96.31640625 109.65234375 C96.27974854 110.65257568 96.24309082 111.65280762 96.20532227 112.68334961 C96 115 96 115 95 116 C92.88862099 116.09948193 90.77387714 116.12799638 88.66015625 116.12939453 C87.66748245 116.13202301 87.66748245 116.13202301 86.65475464 116.13470459 C84.4573101 116.13912217 82.25994542 116.13618547 80.0625 116.1328125 C78.54174789 116.13348557 77.02099588 116.13445561 75.50024414 116.13571167 C72.30907164 116.13718851 69.11792708 116.13503452 65.92675781 116.13037109 C61.8273547 116.1246738 57.72801704 116.12795288 53.62861633 116.13394356 C50.48717756 116.13754954 47.34575442 116.13641042 44.20431519 116.13381577 C42.69237256 116.1331466 41.18042854 116.13397457 39.66848755 116.13629532 C37.55890113 116.13882245 35.44942213 116.13498044 33.33984375 116.12939453 C32.13706787 116.12859894 30.93429199 116.12780334 29.69506836 116.12698364 C27 116 27 116 26 115 C25.90123983 111.92159581 25.86702403 108.86496785 25.87402344 105.78613281 C25.8721553 104.81866119 25.87028717 103.85118958 25.86836243 102.85440063 C25.86434776 100.7454378 25.86228262 98.63647059 25.86190033 96.52750397 C25.85849808 92.0487304 25.83715113 87.57010375 25.81666946 83.09138107 C25.77857711 74.74319337 25.74738531 66.3951594 25.74951172 58.046875 C25.7502979 52.24890889 25.72697147 46.45147548 25.6876297 40.65364838 C25.67715049 38.44168237 25.67565971 36.22965501 25.68328094 34.01767731 C25.69288197 30.92167895 25.67175755 27.82729759 25.64355469 24.73144531 C25.65375137 23.81591888 25.66394806 22.90039246 25.67445374 21.9571228 C25.6015826 17.49902114 25.46398202 15.59796845 22.65264893 11.97479248 C19.67596081 9.75876561 17.1920573 8.74979278 13.625 7.75 C12.48933594 7.4303125 11.35367187 7.110625 10.18359375 6.78125 C6.76997635 5.94355248 3.49617897 5.32522595 0 5 C0 3.35 0 1.7 0 0 Z " fill="#094F95" transform="translate(378,73)"/>
<path d="M0 0 C155.76 0 311.52 0 472 0 C472 0.99 472 1.98 472 3 C457.94863654 3.72362521 443.89709519 4.44359688 429.84472656 5.14746094 C428.94470791 5.19255547 428.04468925 5.23764999 427.11739731 5.28411102 C423.28989884 5.4758386 419.46239774 5.66751239 415.63488007 5.8588562 C401.80451816 6.55058553 387.97513642 7.25936759 374.1463356 7.98163414 C363.39466632 8.54238115 352.64242486 9.09123082 341.88979721 9.63326454 C335.24286064 9.96870544 328.59630429 10.30948473 321.95031738 10.66339111 C254.57113436 14.24031227 188.08009857 12.37397706 120.75283384 9.04810536 C109.67430758 8.50145762 98.59494992 7.97260514 87.5155313 7.44440758 C71.13621915 6.66290702 54.75718707 5.87547637 38.37899971 5.07072067 C36.64131677 4.98540202 34.90362105 4.9003432 33.16591072 4.81558418 C22.106379 4.27562955 11.05239547 3.67056789 0 3 C0 2.01 0 1.02 0 0 Z " fill="#0B4E93" transform="translate(8,271)"/>
<path d="M0 0 C1.98 0 3.96 0 6 0 C6.33 2.97 6.66 5.94 7 9 C7.99 6.03 8.98 3.06 10 0 C11.65 0 13.3 0 15 0 C13.75971762 6.17222879 12.10396411 12.06682122 10 18 C7.625 17.6875 7.625 17.6875 5 17 C3 14 3 14 3 11 C2.34 11 1.68 11 1 11 C0.67 13.31 0.34 15.62 0 18 C-1.65 18 -3.3 18 -5 18 C-1.92482916 5.33029613 -1.92482916 5.33029613 0 0 Z " fill="#0E4D91" transform="translate(132,230)"/>
<path d="M0 0 C1.2065625 0.0309375 1.2065625 0.0309375 2.4375 0.0625 C3.0975 3.0325 3.7575 6.0025 4.4375 9.0625 C5.4275 6.0925 6.4175 3.1225 7.4375 0.0625 C8.7575 0.0625 10.0775 0.0625 11.4375 0.0625 C10.79479017 5.9754304 9.24746216 11.40494531 7.4375 17.0625 C5.7875 17.3925 4.1375 17.7225 2.4375 18.0625 C1.1175 16.0825 -0.2025 14.1025 -1.5625 12.0625 C-2.2225 14.0425 -2.8825 16.0225 -3.5625 18.0625 C-4.8825 18.0625 -6.2025 18.0625 -7.5625 18.0625 C-5.61406831 0.1369285 -5.61406831 0.1369285 0 0 Z " fill="#094F93" transform="translate(355.5625,229.9375)"/>
<path d="M0 0 C3.96 0 7.92 0 12 0 C14.20982793 4.41965586 14.44391391 7.36476044 13 12 C10.4300486 15.1786241 8.87815673 16.70728109 5 18 C3.43881572 18.06740865 1.8749748 18.08514456 0.3125 18.0625 C-0.89986328 18.04896484 -0.89986328 18.04896484 -2.13671875 18.03515625 C-2.75160156 18.02355469 -3.36648438 18.01195312 -4 18 C-3.31005822 11.79052394 -1.70642393 6.00957993 0 0 Z M4 4 C3.01 7.3 2.02 10.6 1 14 C5.64327604 13.3949065 5.64327604 13.3949065 7.8125 11.8125 C9.51995571 9.20638339 9.20267097 7.0400645 9 4 C7.35 4 5.7 4 4 4 Z " fill="#0C4E91" transform="translate(459,230)"/>
<path d="M0 0 C1.79093191 -0.08086147 3.58289628 -0.13912702 5.375 -0.1875 C6.87160156 -0.23970703 6.87160156 -0.23970703 8.3984375 -0.29296875 C9.25695312 -0.19628906 10.11546875 -0.09960938 11 0 C13.46141247 3.6921187 13.68650207 6.71354805 13 11 C10.83150077 14.56253444 8.84094003 16.46362399 5 18 C2.421875 18.1953125 2.421875 18.1953125 -0.25 18.125 C-1.14203125 18.10695312 -2.0340625 18.08890625 -2.953125 18.0703125 C-3.62859375 18.04710937 -4.3040625 18.02390625 -5 18 C-1.92482916 5.33029613 -1.92482916 5.33029613 0 0 Z M3 4 C2.34 7.3 1.68 10.6 1 14 C5.95132335 13.56280503 5.95132335 13.56280503 7.875 10.6875 C9.07817396 7.81325108 9.15154588 6.82652171 8 4 C6.35 4 4.7 4 3 4 Z " fill="#0D4D92" transform="translate(381,230)"/>
<path d="M0 0 C1.62418745 -0.08090971 3.24951745 -0.13914995 4.875 -0.1875 C5.77992188 -0.22230469 6.68484375 -0.25710937 7.6171875 -0.29296875 C8.79667969 -0.14794922 8.79667969 -0.14794922 10 0 C12 3 12 3 11.875 5.5625 C11 8 11 8 8.9375 9.3125 C8.298125 9.539375 7.65875 9.76625 7 10 C7.33 11.32 7.66 12.64 8 14 C9.32 14 10.64 14 12 14 C12 15.32 12 16.64 12 18 C9.1875 18.25 9.1875 18.25 6 18 C4.125 16.125 4.125 16.125 3 14 C3 13.34 3 12.68 3 12 C2.34 12 1.68 12 1 12 C0.67 13.98 0.34 15.96 0 18 C-1.32 18 -2.64 18 -4 18 C-3.41632611 11.69632197 -1.95928381 6.01339937 0 0 Z M4 4 C3.67 5.32 3.34 6.64 3 8 C4.32 7.34 5.64 6.68 7 6 C7 5.34 7 4.68 7 4 C6.01 4 5.02 4 4 4 Z " fill="#0C4E92" transform="translate(433,230)"/>
<path d="M0 0 C1.65 0 3.3 0 5 0 C4.34 2.31 3.68 4.62 3 7 C4.65 7 6.3 7 8 7 C8.33 4.69 8.66 2.38 9 0 C10.65 0 12.3 0 14 0 C12.9007105 6.31121503 11.41862058 12.06338584 9 18 C7.68 18 6.36 18 5 18 C5.33 15.69 5.66 13.38 6 11 C4.03243548 11.03122943 4.03243548 11.03122943 2 12 C0.6954344 14.99615946 0.6954344 14.99615946 0 18 C-1.32 18 -2.64 18 -4 18 C-3.41632611 11.69632197 -1.95928381 6.01339937 0 0 Z " fill="#0E4D8F" transform="translate(223,230)"/>
<path d="M0 0 C0 1.32 0 2.64 0 4 C-3.02734375 4.24414062 -3.02734375 4.24414062 -6.0546875 4.48828125 C-8.39519216 4.87393036 -8.39519216 4.87393036 -10 8 C-10.16699232 11.12521833 -10.16699232 11.12521833 -10 14 C-9.34 13.34 -8.68 12.68 -8 12 C-8 10.68 -8 9.36 -8 8 C-5.36 8 -2.72 8 0 8 C-0.125 10.75 -0.125 10.75 -1 14 C-3.86457608 16.47395207 -5.9577756 17.80609779 -9.6875 18.5 C-12 18 -12 18 -13.8125 16.5 C-15.47909763 12.99137341 -15.82098142 9.76158761 -15 6 C-10.17795894 0.03589658 -7.21300163 -0.11633874 0 0 Z " fill="#0D4D91" transform="translate(172,230)"/>
<path d="M0 0 C1.65 0 3.3 0 5 0 C5 5.94 5 11.88 5 18 C3.35 18 1.7 18 0 18 C0 16.68 0 15.36 0 14 C-2.43717258 14.27034634 -2.43717258 14.27034634 -5 15 C-5.99 16.485 -5.99 16.485 -7 18 C-8.32 18 -9.64 18 -11 18 C-10.52424655 13.1418253 -8.14648703 9.94205039 -5.25 6.1875 C-4.81945312 5.59001953 -4.38890625 4.99253906 -3.9453125 4.37695312 C-2.640625 2.66796875 -2.640625 2.66796875 0 0 Z M-1 8 C-1.33 8.66 -1.66 9.32 -2 10 C-1.34 10 -0.68 10 0 10 C-0.33 9.34 -0.66 8.68 -1 8 Z " fill="#0B4E96" transform="translate(413,230)"/>
<path d="M0 0 C1.65 0 3.3 0 5 0 C5 5.94 5 11.88 5 18 C3.35 17.67 1.7 17.34 0 17 C0 16.01 0 15.02 0 14 C-2.43717258 14.27034634 -2.43717258 14.27034634 -5 15 C-5.99 16.485 -5.99 16.485 -7 18 C-8.32 18 -9.64 18 -11 18 C-10.07297889 13.50751306 -7.85380295 10.45251749 -5.25 6.75 C-4.60417969 5.77546875 -4.60417969 5.77546875 -3.9453125 4.78125 C-2.640625 2.921875 -2.640625 2.921875 0 0 Z M-1 8 C-1.33 8.66 -1.66 9.32 -2 10 C-1.34 10 -0.68 10 0 10 C-0.33 9.34 -0.66 8.68 -1 8 Z " fill="#0C4E92" transform="translate(332,230)"/>
<path d="M0 0 C3.63 0 7.26 0 11 0 C10.67 1.32 10.34 2.64 10 4 C8.02 4 6.04 4 4 4 C4 4.66 4 5.32 4 6 C5.65 6.33 7.3 6.66 9 7 C8.67 8.32 8.34 9.64 8 11 C6.02 11 4.04 11 2 11 C2 11.66 2 12.32 2 13 C3.65 13.33 5.3 13.66 7 14 C6.67 15.32 6.34 16.64 6 18 C2.7 18 -0.6 18 -4 18 C-3.31005822 11.79052394 -1.70642393 6.00957993 0 0 Z " fill="#085093" transform="translate(250,230)"/>
<path d="M0 0 C3.3 0 6.6 0 10 0 C10 1.32 10 2.64 10 4 C7.69 4 5.38 4 3 4 C3 4.99 3 5.98 3 7 C4.65 7 6.3 7 8 7 C7.67 8.32 7.34 9.64 7 11 C5.02 11 3.04 11 1 11 C1 11.99 1 12.98 1 14 C2.65 14 4.3 14 6 14 C6 15.32 6 16.64 6 18 C2.37 18 -1.26 18 -5 18 C-3.72217183 11.80744808 -2.08468172 5.96977039 0 0 Z " fill="#0D4D91" transform="translate(48,230)"/>
<path d="M0 0 C-0.33 1.32 -0.66 2.64 -1 4 C-2.98 4.33 -4.96 4.66 -7 5 C-6.319375 5.886875 -5.63875 6.77375 -4.9375 7.6875 C-3 11 -3 11 -3.0625 13.75 C-4 16 -4 16 -7 18 C-9.04296875 18.1953125 -9.04296875 18.1953125 -11.1875 18.125 C-12.445625 18.08375 -13.70375 18.0425 -15 18 C-15.33 17.01 -15.66 16.02 -16 15 C-15.67 14.34 -15.34 13.68 -15 13 C-12.69 13.33 -10.38 13.66 -8 14 C-8.66 13.113125 -9.32 12.22625 -10 11.3125 C-12.86694762 6.564118 -12.86694762 6.564118 -12 3 C-8.21669117 -0.32472595 -4.88424492 -0.28730852 0 0 Z " fill="#0B4E91" transform="translate(295,230)"/>
<path d="M0 0 C0 1.32 0 2.64 0 4 C-1.98 4.33 -3.96 4.66 -6 5 C-5.319375 6.0725 -4.63875 7.145 -3.9375 8.25 C-1.990993 11.66674101 -1.990993 11.66674101 -2.0625 14.3125 C-3 16 -3 16 -6 18 C-8.04296875 18.1953125 -8.04296875 18.1953125 -10.1875 18.125 C-11.445625 18.08375 -12.70375 18.0425 -14 18 C-14.33 16.68 -14.66 15.36 -15 14 C-12.13822943 12.56911472 -10.06624227 13.40008303 -7 14 C-7.3609375 13.54109375 -7.721875 13.0821875 -8.09375 12.609375 C-8.78984375 11.68898437 -8.78984375 11.68898437 -9.5 10.75 C-9.9640625 10.14671875 -10.428125 9.5434375 -10.90625 8.921875 C-12 7 -12 7 -12 3 C-8.1554435 -0.26204794 -4.9053984 -0.28855285 0 0 Z " fill="#0A4F93" transform="translate(35,230)"/>
<path d="M0 0 C4.62 0 9.24 0 14 0 C13.67 1.32 13.34 2.64 13 4 C11.35 4 9.7 4 8 4 C6.43098141 10.98533796 6.43098141 10.98533796 5 18 C3.35 18 1.7 18 0 18 C0.31008884 16.39536551 0.62316287 14.79130769 0.9375 13.1875 C1.11152344 12.29417969 1.28554687 11.40085938 1.46484375 10.48046875 C2 8 2 8 3 5 C2.01 4.67 1.02 4.34 0 4 C0 2.68 0 1.36 0 0 Z " fill="#0C4E91" transform="translate(199,230)"/>
<path d="M0 0 C4.29 0 8.58 0 13 0 C13 1.32 13 2.64 13 4 C11.35 4 9.7 4 8 4 C6.43098141 10.98533796 6.43098141 10.98533796 5 18 C3.35 18 1.7 18 0 18 C0.54855348 13.428721 1.41744803 9.32564205 3 5 C2.01 4.67 1.02 4.34 0 4 C0 2.68 0 1.36 0 0 Z " fill="#0C4F8E" transform="translate(68,230)"/>
<path d="M0 0 C4.29 0 8.58 0 13 0 C12.67 1.32 12.34 2.64 12 4 C11.38640625 4.02964844 10.7728125 4.05929688 10.140625 4.08984375 C7.66208975 4.85270952 7.66208975 4.85270952 6.734375 7.94140625 C6.40953125 9.13636719 6.0846875 10.33132812 5.75 11.5625 C5.41484375 12.76003906 5.0796875 13.95757812 4.734375 15.19140625 C4.49203125 16.11824219 4.2496875 17.04507813 4 18 C2.35 17.67 0.7 17.34 -1 17 C0.32 12.71 1.64 8.42 3 4 C1.68 4 0.36 4 -1 4 C-0.67 2.68 -0.34 1.36 0 0 Z " fill="#0D4E8E" transform="translate(90,230)"/>
<path d="M0 0 C4.29 0 8.58 0 13 0 C12.67 1.32 12.34 2.64 12 4 C11.38640625 4.02964844 10.7728125 4.05929688 10.140625 4.08984375 C7.66208975 4.85270952 7.66208975 4.85270952 6.734375 7.94140625 C6.40953125 9.13636719 6.0846875 10.33132812 5.75 11.5625 C5.41484375 12.76003906 5.0796875 13.95757812 4.734375 15.19140625 C4.49203125 16.11824219 4.2496875 17.04507813 4 18 C2.68 18 1.36 18 0 18 C0.51405169 13.03083364 1.23384882 8.70973649 3 4 C1.68 4 0.36 4 -1 4 C-0.67 2.68 -0.34 1.36 0 0 Z " fill="#0A4F90" transform="translate(305,230)"/>
<path d="M0 0 C1.32 0 2.64 0 4 0 C3.31195504 6.19240462 1.71951285 12.01955594 0 18 C-1.65 18 -3.3 18 -5 18 C-3.9007105 11.68878497 -2.41862058 5.93661416 0 0 Z " fill="#0E4D90" transform="translate(114,230)"/>
<path d="M0 0 C1.65 0 3.3 0 5 0 C5 5.94 5 11.88 5 18 C3.35 18 1.7 18 0 18 C0.66 17.34 1.32 16.68 2 16 C2.39764263 14.01178687 2.73775349 12.01055661 3 10 C2.34 10 1.68 10 1 10 C1 7.36 1 4.72 1 2 C0.34 1.67 -0.32 1.34 -1 1 C-0.67 0.67 -0.34 0.34 0 0 Z " fill="#0C4F8D" transform="translate(413,230)"/>
<path d="M0 0 C0.99 0.33 1.98 0.66 3 1 C3 1.66 3 2.32 3 3 C2.01 3 1.02 3 0 3 C0 5.64 0 8.28 0 11 C-1.32 11 -2.64 11 -4 11 C-3.67 8.36 -3.34 5.72 -3 3 C-2.34 3 -1.68 3 -1 3 C-0.67 2.01 -0.34 1.02 0 0 Z " fill="#094E9A" transform="translate(223,237)"/>
<path d="M0 0 C3.63 0 7.26 0 11 0 C10.67 1.32 10.34 2.64 10 4 C8.02 4 6.04 4 4 4 C4 3.01 4 2.02 4 1 C3.34 1 2.68 1 2 1 C1.67 2.32 1.34 3.64 1 5 C0.67 5 0.34 5 0 5 C0 3.35 0 1.7 0 0 Z " fill="#134C8A" transform="translate(250,230)"/>
<path d="M0 0 C1.93816735 0.1141866 3.87555099 0.24173423 5.8125 0.375 C6.89144531 0.44460938 7.97039062 0.51421875 9.08203125 0.5859375 C12 1 12 1 15 3 C10.05 3 5.1 3 0 3 C0 2.01 0 1.02 0 0 Z " fill="#0E4E8C" transform="translate(428,273)"/>
<path d="M0 0 C0.99 0 1.98 0 3 0 C3.33 2.64 3.66 5.28 4 8 C3.01 8.33 2.02 8.66 1 9 C1 8.34 1 7.68 1 7 C0.34 6.67 -0.32 6.34 -1 6 C-0.67 4.02 -0.34 2.04 0 0 Z " fill="#055196" transform="translate(134,234)"/>
<path d="M0 0 C0.33 0 0.66 0 1 0 C1.24901747 2.91620455 1.47485086 5.83111077 1.6875 8.75 C1.76033203 9.575 1.83316406 10.4 1.90820312 11.25 C2.33135078 17.42297754 2.33135078 17.42297754 0.51953125 20.578125 C0.01808594 21.04734375 -0.48335937 21.5165625 -1 22 C-1.5625 20.0625 -1.5625 20.0625 -2 18 C-1.67 17.67 -1.34 17.34 -1 17 C-0.76298761 14.14122091 -0.57780818 11.30116703 -0.4375 8.4375 C-0.39431641 7.63119141 -0.35113281 6.82488281 -0.30664062 5.99414062 C-0.20024738 3.99631195 -0.09959112 1.9981793 0 0 Z " fill="#114E85" transform="translate(231,50)"/>
<path d="M0 0 C1.67542976 0.28604898 3.34385343 0.61781233 5 1 C5 1.99 5 2.98 5 4 C5.99 4.33 6.98 4.66 8 5 C5.36 5 2.72 5 0 5 C-0.5625 3.0625 -0.5625 3.0625 -1 1 C-0.67 0.67 -0.34 0.34 0 0 Z " fill="#114D87" transform="translate(21,243)"/>
<path d="M0 0 C2.31 0 4.62 0 7 0 C6.67 1.32 6.34 2.64 6 4 C4.02 4 2.04 4 0 4 C0 2.68 0 1.36 0 0 Z " fill="#124B90" transform="translate(288,230)"/>
<path d="M0 0 C2.03833424 1.2739589 4.03852126 2.61061923 6 4 C6 4.66 6 5.32 6 6 C3.36 5.67 0.72 5.34 -2 5 C-1.34 3.35 -0.68 1.7 0 0 Z " fill="#0F4D8C" transform="translate(177,121)"/>
<path d="M0 0 C1.65 0 3.3 0 5 0 C4.67 1.98 4.34 3.96 4 6 C3.67 6 3.34 6 3 6 C3 4.35 3 2.7 3 1 C2.34 1 1.68 1 1 1 C0.67 2.65 0.34 4.3 0 6 C-0.66 6 -1.32 6 -2 6 C-1.34 4.02 -0.68 2.04 0 0 Z " fill="#124C8D" transform="translate(353,230)"/>
<path d="M0 0 C0.33 0 0.66 0 1 0 C1.36923077 7.50769231 1.36923077 7.50769231 -0.5 10 C-0.995 10.33 -1.49 10.66 -2 11 C-2.66 9.02 -3.32 7.04 -4 5 C-3.34 4.34 -2.68 3.68 -2 3 C-1.67 3.66 -1.34 4.32 -1 5 C-0.67 3.35 -0.34 1.7 0 0 Z " fill="#134C88" transform="translate(393,233)"/>
<path d="M0 0 C1.32 0 2.64 0 4 0 C3.67 2.31 3.34 4.62 3 7 C1.68 6.34 0.36 5.68 -1 5 C-0.67 3.35 -0.34 1.7 0 0 Z " fill="#114D88" transform="translate(363,230)"/>
<path d="M0 0 C-0.33 1.32 -0.66 2.64 -1 4 C-2.65 4.33 -4.3 4.66 -6 5 C-6 3.68 -6 2.36 -6 1 C-4 0 -4 0 0 0 Z " fill="#124A95" transform="translate(318,230)"/>
<path d="M0 0 C2.97 0 5.94 0 9 0 C9 0.33 9 0.66 9 1 C7.35 1 5.7 1 4 1 C3.67 1.99 3.34 2.98 3 4 C1.68 4 0.36 4 -1 4 C-0.67 2.68 -0.34 1.36 0 0 Z " fill="#104F85" transform="translate(305,230)"/>
<path d="M0 0 C3.24271506 0.5590888 4.93057424 1.4132178 7 4 C7 4.66 7 5.32 7 6 C3.75728494 5.4409112 2.06942576 4.5867822 0 2 C0 1.34 0 0.68 0 0 Z " fill="#045199" transform="translate(220,118)"/>
<path d="M0 0 C-2.91765 1.9451 -4.62537285 2.45276317 -8 3 C-8 2.34 -8 1.68 -8 1 C-8.66 0.67 -9.32 0.34 -10 0 C-6.30458414 -0.95024979 -3.69541586 -0.95024979 0 0 Z " fill="#104D8B" transform="translate(247,35)"/>
<path d="M0 0 C2 1.3125 2 1.3125 4 3 C4 3.99 4 4.98 4 6 C2.35 6 0.7 6 -1 6 C-0.67 4.02 -0.34 2.04 0 0 Z " fill="#134B8C" transform="translate(200,242)"/>
</svg>
