<?xml version="1.0" encoding="UTF-8"?>
<svg version="1.1" xmlns="http://www.w3.org/2000/svg" width="860" height="267">
<path d="M0 0 C2.89589652 -0.02706445 5.79153795 -0.04687029 8.6875 -0.0625 C9.91243164 -0.07506836 9.91243164 -0.07506836 11.16210938 -0.08789062 C15.24499084 -0.10442051 19.01651707 -0.03035098 23 1 C23 1.66 23 2.32 23 3 C25.97 3.33 28.94 3.66 32 4 C32 4.66 32 5.32 32 6 C32.9075 6.0825 33.815 6.165 34.75 6.25 C38.59004264 7.13616369 39.49244644 8.02228015 42 11 C42.45117188 11.4846875 42.90234375 11.969375 43.3671875 12.46875 C55.76616862 26.0883562 60.36658784 42.69159979 60.22705078 60.7956543 C60.22734283 61.81163193 60.22763489 62.82760956 60.22793579 63.87437439 C60.22655626 67.19107987 60.21106057 70.50755312 60.1953125 73.82421875 C60.19157747 76.14020159 60.18873281 78.45618603 60.18673706 80.77217102 C60.17913922 86.83674564 60.15952411 92.90122286 60.1373291 98.96575928 C60.11316908 106.2588576 60.10407136 113.55198868 60.09242249 120.84511566 C60.07309726 131.89681129 60.03474772 142.94829366 60 154 C44.49 154 28.98 154 13 154 C12.96261719 147.03003906 12.92523438 140.06007812 12.88671875 132.87890625 C12.85642985 128.45375168 12.82527588 124.02863688 12.79101562 119.60351562 C12.73676184 112.58538859 12.6856488 105.56734023 12.65356445 98.54907227 C12.62748595 92.88848214 12.58705098 87.22815731 12.53681374 81.56773186 C12.52017583 79.41211188 12.50864245 77.25644605 12.50238609 75.10077095 C12.49271167 72.0728409 12.46461192 69.04558491 12.43237305 66.01782227 C12.43380814 65.13380737 12.43524323 64.24979248 12.4367218 63.33898926 C12.34145245 56.97947279 11.67610663 49.96283234 7.25 45.0625 C-0.91545755 41.20658949 -10.24784748 40.49136052 -19.0234375 42.79296875 C-23.71054479 44.56495649 -23.71054479 44.56495649 -27.58203125 47.63671875 C-29 49 -29 49 -32 49 C-32.81752303 50.58074564 -33.62881997 52.16471223 -34.4375 53.75 C-34.88996094 54.63171875 -35.34242188 55.5134375 -35.80859375 56.421875 C-38.16678974 61.52485649 -38.1675209 66.34370499 -38.20532227 71.89941406 C-38.21522186 72.79732666 -38.22512146 73.69523926 -38.23532104 74.62036133 C-38.26688411 77.58542248 -38.29167299 80.55049966 -38.31640625 83.515625 C-38.33698026 85.57257501 -38.35797685 87.62952084 -38.37937927 89.6864624 C-38.43455378 95.09839486 -38.48398347 100.51036519 -38.53222656 105.92236328 C-38.59131114 112.41690205 -38.65751371 118.91137166 -38.72252655 125.40585327 C-38.82047793 135.27052659 -38.90937382 145.13524441 -39 155 C-54.51 155 -70.02 155 -86 155 C-86 105.83 -86 56.66 -86 6 C-71.15 6 -56.3 6 -41 6 C-40.505 14.415 -40.505 14.415 -40 23 C-35.20998825 18.77242374 -35.20998825 18.77242374 -33.9375 15.75 C-33.628125 15.1725 -33.31875 14.595 -33 14 C-31.67405895 13.63837971 -30.34061543 13.30271961 -29 13 C-28.67 12.01 -28.34 11.02 -28 10 C-25.738033 8.60711993 -23.56307256 7.41032992 -21.1875 6.25 C-20.55779297 5.92128906 -19.92808594 5.59257813 -19.27929688 5.25390625 C-14.55926777 2.90627373 -14.55926777 2.90627373 -11.87890625 3.35546875 C-11.25886719 3.56816406 -10.63882813 3.78085937 -10 4 C-7.39242407 3.69512905 -7.39242407 3.69512905 -4.75 3.0625 C-3.85796875 2.86785156 -2.9659375 2.67320313 -2.046875 2.47265625 C-1.37140625 2.31667969 -0.6959375 2.16070312 0 2 C0 1.34 0 0.68 0 0 Z M-16 39 C-16 39.33 -16 39.66 -16 40 C-11.71 40 -7.42 40 -3 40 C-3 39.67 -3 39.34 -3 39 C-7.29 39 -11.58 39 -16 39 Z " fill="#FEFEFE" transform="translate(344,58)"/>
<path d="M0 0 C1.87890305 3.75780609 3.51023842 7.56082052 5.09765625 11.4453125 C5.40420639 12.19222855 5.71075653 12.93914459 6.02659607 13.70869446 C7.04023022 16.18011713 8.05145142 18.65251857 9.0625 21.125 C9.76820017 22.84774951 10.47392981 24.57048694 11.1796875 26.29321289 C19.180284 45.8375656 27.09418626 65.41715755 35 85 C42.92277845 66.220462 50.73826913 47.39979487 58.44140625 28.52905273 C58.76637589 27.73414429 59.09134552 26.93923584 59.42616272 26.12023926 C60.02277665 24.66070425 60.61847137 23.20079285 61.21287537 21.74035645 C64.05605769 14.78723504 67.03923941 7.90844138 70 1 C84.85 1 99.7 1 115 1 C114.31640043 4.41799784 113.76719067 6.88633772 112.48803711 9.98779297 C112.17873764 10.74401947 111.86943817 11.50024597 111.55076599 12.27938843 C111.21303665 13.09211212 110.87530731 13.90483582 110.52734375 14.7421875 C110.17297745 15.60510406 109.81861115 16.46802063 109.45350647 17.35708618 C108.28567525 20.19812753 107.11157273 23.03653297 105.9375 25.875 C105.11609536 27.87026118 104.29513763 29.86570639 103.47460938 31.86132812 C101.79503201 35.94460612 100.11312655 40.02691247 98.42919922 44.10839844 C95.26343626 51.78307918 92.11409533 59.46447095 88.96520996 67.14608765 C87.9894323 69.52577205 87.01290139 71.905146 86.03613281 74.28442383 C82.57350097 82.71948718 79.11658428 91.15685197 75.66796875 99.59765625 C61.56477285 134.11446377 47.37459731 168.59522611 33 203 C18.15 203 3.3 203 -12 203 C-8.6296006 191.76533535 -8.6296006 191.76533535 -6.77587891 187.41772461 C-6.36600739 186.44649155 -5.95613586 185.47525848 -5.53384399 184.47459412 C-5.1024411 183.4607515 -4.67103821 182.44690887 -4.2265625 181.40234375 C-3.30974865 179.1978678 -2.39442792 176.99277039 -1.48046875 174.78710938 C-0.05211787 171.34917072 1.38428224 167.91576084 2.84619141 164.49194336 C4.26510122 161.15995826 5.64700572 157.81455919 7.0234375 154.46484375 C7.68875992 152.94104347 7.68875992 152.94104347 8.36752319 151.38645935 C10.89395719 145.14571994 10.89395719 145.14571994 10.09155273 138.65234375 C9.41856835 137.09090839 8.71837598 135.54107894 8 134 C7.15745188 131.85327255 6.32315651 129.70329688 5.49487305 127.55102539 C4.5032031 125.06543578 3.50884479 122.58104969 2.51171875 120.09765625 C1.97096547 118.74571515 1.43040168 117.39369825 0.89001465 116.04161072 C-0.54489121 112.45362967 -1.98327275 108.86705207 -3.4225502 105.28082275 C-4.31584415 103.05416424 -5.20807082 100.82708103 -6.09994507 98.59985352 C-12.85734989 81.72588425 -19.64241033 64.86491804 -26.61080933 48.07672119 C-30.97057591 37.5710677 -35.20435323 27.01954608 -39.375 16.4375 C-39.66347809 15.70684326 -39.95195618 14.97618652 -40.24917603 14.22338867 C-41.05114237 12.19015123 -41.85042466 10.15588566 -42.6484375 8.12109375 C-43.33172119 6.37977173 -43.33172119 6.37977173 -44.02880859 4.60327148 C-45 2 -45 2 -45 1 C-22.725 0.505 -22.725 0.505 0 0 Z " fill="#FEFEFE" transform="translate(612,64)"/>
<path d="M0 0 C1.80984375 -0.00580078 1.80984375 -0.00580078 3.65625 -0.01171875 C10.50727198 -0.00427199 17.20007779 0.30611641 24 1.125 C25.14178711 1.2319519 25.14178711 1.2319519 26.30664062 1.34106445 C31.76736412 1.89236412 31.76736412 1.89236412 34 4.125 C36.80848217 6.3588456 36.80848217 6.3588456 39.9375 6.3125 C45.85930286 6.98745818 51.26269214 10.70278076 56 14.125 C56.495 15.61 56.495 15.61 57 17.125 C57.99 18.115 57.99 18.115 59 19.125 C57.38411007 23.38704271 55.74807178 27.64055826 54.09277344 31.88745117 C53.53245824 33.33352535 52.97773148 34.78177775 52.42871094 36.23217773 C51.63892324 38.31570611 50.82942303 40.39059562 50.015625 42.46484375 C49.65286469 43.44142189 49.65286469 43.44142189 49.28277588 44.43772888 C47.51986913 48.84999015 47.51986913 48.84999015 45.05517578 50.15380859 C42.56249939 50.1188673 41.26794151 49.55012308 39.1015625 48.32421875 C38.37453125 47.92396484 37.6475 47.52371094 36.8984375 47.11132812 C36.14820313 46.68271484 35.39796875 46.25410156 34.625 45.8125 C29.82753701 43.11809153 25.32573618 40.65509246 20 39.125 C20 38.465 20 37.805 20 37.125 C14.26562104 35.52198043 8.93883902 34.74702277 3 34.5 C2.22527344 34.46132812 1.45054687 34.42265625 0.65234375 34.3828125 C-1.23143415 34.28978643 -3.11568256 34.20636825 -5 34.125 C-4.67 34.785 -4.34 35.445 -4 36.125 C-4.97582031 36.30675781 -5.95164062 36.48851562 -6.95703125 36.67578125 C-8.22933594 36.92714844 -9.50164063 37.17851563 -10.8125 37.4375 C-12.07707031 37.68113281 -13.34164062 37.92476562 -14.64453125 38.17578125 C-18.52972637 39.22982011 -18.52972637 39.22982011 -21 42.125 C-21.3606631 44.17863606 -21.3606631 44.17863606 -21.1875 46.3125 C-21.125625 47.570625 -21.06375 48.82875 -21 50.125 C-15.02449428 53.36173227 -8.53272427 55.35572051 -2 57.125 C-2 57.785 -2 58.445 -2 59.125 C2.14381846 60.11282573 6.29037176 61.08867139 10.4375 62.0625 C11.60216797 62.34029297 12.76683594 62.61808594 13.96679688 62.90429688 C20.32001694 64.38969762 26.49682553 65.57553392 33 66.125 C33 66.785 33 67.445 33 68.125 C33.56847656 68.21136719 34.13695312 68.29773438 34.72265625 68.38671875 C40.68255058 69.47124042 44.34025402 71.24187835 49 75.125 C49.33 75.785 49.66 76.445 50 77.125 C50.639375 77.41375 51.27875 77.7025 51.9375 78 C55.84329303 80.13043256 56.90541863 85.16779076 58.5625 89.125 C59.21412109 90.671875 59.21412109 90.671875 59.87890625 92.25 C63.82567794 102.37133786 63.58968931 115.84715913 59.265625 125.8046875 C57.20625653 129.58019637 54.7974116 132.86708084 52 136.125 C51.44441406 136.77726563 50.88882813 137.42953125 50.31640625 138.1015625 C49.28635111 139.30205842 48.24825195 140.49573927 47.19921875 141.6796875 C45.90200908 143.13184436 45.90200908 143.13184436 45 145.125 C44.38125 145.269375 43.7625 145.41375 43.125 145.5625 C40.92843714 145.93575117 40.92843714 145.93575117 39.69140625 147.5859375 C37.48442207 149.59414019 35.73123214 149.81972704 32.8125 150.3125 C31.91144531 150.47105469 31.01039063 150.62960938 30.08203125 150.79296875 C29.39496094 150.90253906 28.70789063 151.01210937 28 151.125 C28 151.785 28 152.445 28 153.125 C25.36 153.125 22.72 153.125 20 153.125 C20 153.785 20 154.445 20 155.125 C13.41634955 155.15040371 6.83271179 155.16788948 0.24902344 155.17993164 C-1.98958814 155.18495313 -4.22819645 155.19177158 -6.46679688 155.20043945 C-9.6888103 155.21260069 -12.91078027 155.21825024 -16.1328125 155.22265625 C-17.62846237 155.23039818 -17.62846237 155.23039818 -19.15432739 155.23829651 C-23.88648227 155.23867654 -28.34670473 155.11528154 -33 154.125 C-33 153.465 -33 152.805 -33 152.125 C-35.20795422 151.64408942 -37.416381 151.16534821 -39.625 150.6875 C-40.85476563 150.42066406 -42.08453125 150.15382812 -43.3515625 149.87890625 C-45.66641077 149.40057036 -47.99555939 148.98394299 -50.3359375 148.65234375 C-53 148.125 -53 148.125 -55 146.125 C-55.59425781 145.97675781 -56.18851563 145.82851562 -56.80078125 145.67578125 C-59.57889692 144.98001871 -61.71640939 143.75427369 -64.1875 142.3125 C-65.06792969 141.81105469 -65.94835937 141.30960938 -66.85546875 140.79296875 C-69 139.125 -69 139.125 -69.77612305 137.41699219 C-70.10096209 134.09137718 -68.98982585 131.86361348 -67.7265625 128.78515625 C-67.48336273 128.18118515 -67.24016296 127.57721405 -66.98959351 126.9549408 C-66.21185522 125.02801433 -65.41933961 123.10763549 -64.625 121.1875 C-63.84019534 119.27007952 -63.05867161 117.35143151 -62.28182983 115.43077087 C-61.57417967 113.68432376 -60.85691656 111.94178089 -60.13916016 110.19946289 C-59.13463572 107.4883664 -58.46360132 104.97127333 -58 102.125 C-53.96814455 103.6501588 -50.20268018 105.5213572 -46.375 107.5 C-41.04393857 110.22881895 -35.72366538 112.45794883 -30.01171875 114.30078125 C-28 115.125 -28 115.125 -27 117.125 C-26.43152344 117.11339844 -25.86304688 117.10179687 -25.27734375 117.08984375 C-20.39329516 117.03276806 -15.81496035 117.30543228 -11 118.125 C-11 118.785 -11 119.445 -11 120.125 C-8.24973583 120.17904449 -5.50053797 120.21869306 -2.75 120.25 C-1.58404297 120.27513672 -1.58404297 120.27513672 -0.39453125 120.30078125 C5.09035938 120.38200007 5.09035938 120.38200007 10 118.125 C17.5 113.125 17.5 113.125 19 113.125 C19.0928125 111.2378125 19.0928125 111.2378125 19.1875 109.3125 C19.23970703 108.25095703 19.23970703 108.25095703 19.29296875 107.16796875 C19.1518241 105.06703932 19.1518241 105.06703932 17.80859375 103.4609375 C15.5679093 101.80583149 13.56823283 101.24954919 10.875 100.5625 C8.1796875 99.87109375 8.1796875 99.87109375 6 99.125 C5.67 98.465 5.34 97.805 5 97.125 C4.39671875 97.14820313 3.7934375 97.17140625 3.171875 97.1953125 C2.37265625 97.21335937 1.5734375 97.23140625 0.75 97.25 C-0.43335938 97.28480469 -0.43335938 97.28480469 -1.640625 97.3203125 C-4.20731941 97.1078378 -5.7916067 96.41154105 -8 95.125 C-8 94.795 -8 94.465 -8 94.125 C-13.10674622 92.80102876 -17.56152321 92.07155736 -22.87109375 92.25390625 C-27.07693972 91.99924035 -31.03918332 90.48855984 -35 89.125 C-35 88.465 -35 87.805 -35 87.125 C-36.010625 87.0425 -37.02125 86.96 -38.0625 86.875 C-42.40717712 86.26444456 -45.35451725 84.53101861 -49 82.125 C-49.495 81.135 -49.495 81.135 -50 80.125 C-51.485 79.63 -51.485 79.63 -53 79.125 C-53.71519506 77.81705572 -54.37670033 76.47914909 -55 75.125 C-55.95945674 73.90095769 -56.93985001 72.69311831 -57.9375 71.5 C-64.66951472 62.61702447 -65.82657646 50.85946398 -64.375 40.0625 C-62.51379793 30.58506313 -58.32892335 23.92995633 -51.671875 17.03515625 C-49.78666964 15.12977588 -49.78666964 15.12977588 -49 12.125 C-48.01 11.795 -47.02 11.465 -46 11.125 C-45.525625 10.63 -45.05125 10.135 -44.5625 9.625 C-42.70186782 7.8387931 -41.50922945 7.58122354 -39 7.125 C-36.05141896 6.5179392 -35.20052594 6.32552594 -33 4.125 C-30.28465201 1.40965201 -27.65663083 1.50375916 -24 1.125 C-22.96746094 0.99774536 -22.96746094 0.99774536 -21.9140625 0.86791992 C-14.60439282 0.02983386 -7.35130376 -0.02356187 0 0 Z M-3 95.125 C1 96.125 1 96.125 1 96.125 Z M-23 118.125 C-19 119.125 -19 119.125 -19 119.125 Z M-27 153.125 C-27 153.455 -27 153.785 -27 154.125 C-24.69 154.125 -22.38 154.125 -20 154.125 C-20 153.795 -20 153.465 -20 153.125 C-22.31 153.125 -24.62 153.125 -27 153.125 Z " fill="#FFFFFF" transform="translate(798,60.875)"/>
<path d="M0 0 C2.33314835 0.33462563 4.66642823 0.66833999 7 1 C7 1.66 7 2.32 7 3 C7.89138672 3.11214844 7.89138672 3.11214844 8.80078125 3.2265625 C15.92559958 4.35678251 22.09733355 6.78993119 28 11 C28.495 12.485 28.495 12.485 29 14 C31.01508358 14.73323796 31.01508358 14.73323796 33 15 C31.98653055 21.04689306 29.61039142 26.60325529 27.38964844 32.28515625 C26.62356236 34.25369416 25.8742101 36.22811305 25.125 38.203125 C24.63903744 39.45352058 24.15209247 40.70353488 23.6640625 41.953125 C23.22529785 43.08911133 22.7865332 44.22509766 22.33447266 45.39550781 C21 48 21 48 18 49 C15.49998346 47.7689092 13.18565407 46.50257845 10.8125 45.0625 C9.83120117 44.48338867 9.83120117 44.48338867 8.83007812 43.89257812 C7.21464684 42.93746912 5.60659475 41.96989934 4 41 C4 40.34 4 39.68 4 39 C2.9275 38.87625 1.855 38.7525 0.75 38.625 C-3.0781951 37.98696748 -5.40507378 36.9509654 -8.6640625 35.0078125 C-16.57841006 31.59326121 -26.64803233 31.53474251 -35 33 C-35 33.66 -35 34.32 -35 35 C-35.92232422 35.14695312 -35.92232422 35.14695312 -36.86328125 35.296875 C-41.82367602 36.16092717 -41.82367602 36.16092717 -46.0625 38.6875 C-47.39145634 41.96559231 -47.38164776 44.50156224 -47 48 C-44.69716073 51.17314308 -42.020202 51.7714795 -38.3125 52.6875 C-36.82169922 53.06455078 -36.82169922 53.06455078 -35.30078125 53.44921875 C-34.54152344 53.63097656 -33.78226562 53.81273437 -33 54 C-33 54.66 -33 55.32 -33 56 C-26.26190799 57.94501625 -20.1648827 59.28804737 -13.13671875 59.0390625 C-10.64919694 58.99358678 -8.40128992 59.35965602 -6 60 C-6 60.66 -6 61.32 -6 62 C-4.96875 62.144375 -3.9375 62.28875 -2.875 62.4375 C0.42549813 62.91660457 3.71268341 63.43875083 7 64 C7 64.66 7 65.32 7 66 C7.56847656 66.08636719 8.13695312 66.17273438 8.72265625 66.26171875 C14.36535432 67.28852024 18.88225781 68.87085132 23 73 C23.672016 74.33064523 24.33840782 75.66414147 25 77 C26.0971138 78.21331058 27.22462417 79.39956548 28.375 80.5625 C35.49886006 88.60652532 37.08989594 98.50785904 37 109 C36.34839407 119.10682384 32.4935452 128.92181796 25.1875 136.0625 C24.60355469 136.56910156 24.01960937 137.07570312 23.41796875 137.59765625 C21.73037151 139.05528225 21.73037151 139.05528225 21 142 C15.37746159 146.18039382 9.66684605 149.57967207 2.5859375 149.828125 C-0.72147668 150.04795313 -3.82111543 150.80306944 -7.0625 151.5 C-20.75163881 154.21028748 -35.09055797 153.76959742 -49 154 C-49 153.34 -49 152.68 -49 152 C-51.54046458 151.49311395 -54.08208876 150.99433126 -56.625 150.5 C-57.33785156 150.35691406 -58.05070312 150.21382812 -58.78515625 150.06640625 C-62.92144935 149.26950574 -66.76433679 148.83965944 -71 149 C-71 148.34 -71 147.68 -71 147 C-72.58298026 146.5196682 -74.16639978 146.04078388 -75.75 145.5625 C-76.63171875 145.29566406 -77.5134375 145.02882812 -78.421875 144.75390625 C-79.94719145 144.30786674 -81.4833154 143.8933181 -83.03515625 143.55078125 C-85.45847576 142.87148095 -87.4793713 141.82943384 -89.6875 140.625 C-90.86892578 139.99464844 -90.86892578 139.99464844 -92.07421875 139.3515625 C-94 138 -94 138 -95 135 C-94.55094438 130.91152563 -93.52324186 127.36801161 -92.00390625 123.55859375 C-91.41319336 122.06489258 -91.41319336 122.06489258 -90.81054688 120.54101562 C-90.39869141 119.51685547 -89.98683594 118.49269531 -89.5625 117.4375 C-89.15451172 116.40947266 -88.74652344 115.38144531 -88.32617188 114.32226562 C-87.223161 111.54584509 -86.11309496 108.77238972 -85 106 C-84.33315992 104.33340271 -83.66644015 102.66675725 -83 101 C-78.50202887 102.68673918 -74.27113698 104.81673892 -70 107 C-70 107.66 -70 108.32 -70 109 C-69.071875 109.0825 -68.14375 109.165 -67.1875 109.25 C-61.92273989 109.9959311 -56.82285214 111.78883077 -52 114 C-51.67 114.66 -51.34 115.32 -51 116 C-43.81716534 117.64435439 -36.10981896 117.02106561 -28.8125 116.6875 C-27.77158203 116.65205078 -26.73066406 116.61660156 -25.65820312 116.58007812 C-18.75186478 116.28628468 -12.88129037 115.92086025 -7 112 C-6.0524343 108.71996487 -5.88307784 106.52614972 -6.625 103.1875 C-7.80120993 100.78229246 -7.80120993 100.78229246 -10.3125 100.3125 C-11.199375 100.209375 -12.08625 100.10625 -13 100 C-17.82191781 98.35616438 -17.82191781 98.35616438 -19 96 C-20.2375 96.04125 -21.475 96.0825 -22.75 96.125 C-26.01637962 96.13658291 -28.2146947 95.8568702 -31 94 C-31 93.67 -31 93.34 -31 93 C-37.74810241 91.24778794 -43.9981519 89.73016635 -50.98828125 90.02734375 C-54.21983768 89.98341968 -56.95485958 89.03664355 -60 88 C-60 87.34 -60 86.68 -60 86 C-60.94875 85.95875 -61.8975 85.9175 -62.875 85.875 C-68.18884851 85.12519315 -72.81981167 82.26314518 -77 79 C-78.11328125 77 -78.11328125 77 -79 75 C-79.92768241 73.9106358 -80.88782927 72.84826203 -81.875 71.8125 C-90.17556876 62.39571784 -90.67355613 51.16814996 -90.17919922 39.18798828 C-89.48981185 30.77070004 -85.34947098 24.26848266 -80 18 C-79.51789063 17.42121094 -79.03578125 16.84242187 -78.5390625 16.24609375 C-78.09304688 15.71113281 -77.64703125 15.17617187 -77.1875 14.625 C-75.01610433 12.22307477 -75.01610433 12.22307477 -74 10 C-73.01 9.67 -72.02 9.34 -71 9 C-70.525625 8.505 -70.05125 8.01 -69.5625 7.5 C-67.70799578 5.71967595 -66.46173556 5.59678438 -64 5 C-62.66150329 4.00692179 -61.32848691 3.00642948 -60 2 C-55.84412322 -0.13409889 -52.62274806 0 -48 0 C-46.26722384 -0.31403063 -44.5383634 -0.64996573 -42.8125 -1 C-28.64341572 -3.48269312 -14.11870265 -2.17088918 0 0 Z M-16 60 C-12 61 -12 61 -12 61 Z M-53 88 C-49 89 -49 89 -49 89 Z M-40 118 C-40 118.33 -40 118.66 -40 119 C-32.74 119 -25.48 119 -18 119 C-18 118.67 -18 118.34 -18 118 C-25.26 118 -32.52 118 -40 118 Z " fill="#FEFEFE" transform="translate(520,62)"/>
<path d="M0 0 C19.47 0 38.94 0 59 0 C58.17326253 4.96042484 57.21935796 8.28258657 55.2890625 12.80859375 C54.87003914 13.80079926 54.87003914 13.80079926 54.44255066 14.81304932 C53.83189976 16.25810504 53.21850125 17.70200205 52.60269165 19.14486694 C50.8824951 23.17863309 49.18613352 27.22241458 47.48828125 31.265625 C47.12500229 32.12971481 46.76172333 32.99380463 46.38743591 33.88407898 C42.09732544 44.11200317 37.95533809 54.39926318 33.8125 64.6875 C32.19982409 68.68904631 30.5864624 72.69031563 28.97265625 76.69140625 C28.56674255 77.69786697 28.16082886 78.7043277 27.74261475 79.74128723 C23.11123592 91.21591807 18.43169004 102.67082569 13.75 114.125 C7.89553629 128.44985306 2.05453817 142.77984146 -3.75 157.125 C-11.43271839 176.11107655 -19.21548856 195.0553925 -27 214 C-46.47 214 -65.94 214 -86 214 C-84.87499936 207.24999613 -84.87499936 207.24999613 -83.4597168 203.78198242 C-83.14314117 202.99763321 -82.82656555 202.213284 -82.50039673 201.40516663 C-81.98006363 200.14306618 -81.98006363 200.14306618 -81.44921875 198.85546875 C-81.08363861 197.95481186 -80.71805847 197.05415497 -80.34140015 196.12620544 C-79.12928707 193.14421587 -77.90842799 190.16589009 -76.6875 187.1875 C-75.82750959 185.07687767 -74.96806291 182.96603373 -74.10913086 180.85498047 C-71.85868492 175.32810529 -69.60091936 169.80425028 -67.34143066 164.28106689 C-65.22077369 159.09405457 -63.10666182 153.90437871 -60.9921875 148.71484375 C-57.25832226 139.55387837 -53.51828325 130.39544854 -49.77537537 121.23817444 C-45.59507413 111.01052575 -41.41986862 100.78080026 -37.24514771 90.5508728 C-36.00732729 87.51795339 -34.76921448 84.48515352 -33.53100586 81.45239258 C-29.64807811 71.94148336 -25.76691402 62.42986461 -21.89141846 52.91592407 C-20.07391784 48.4544327 -18.25549858 43.99331601 -16.43701172 39.53222656 C-15.5758769 37.41896902 -14.71518515 35.30553086 -13.85498047 33.19189453 C-12.65707108 30.24855484 -11.45759093 27.30585948 -10.2578125 24.36328125 C-9.91485138 23.5194136 -9.57189026 22.67554596 -9.21853638 21.80610657 C-6.2347517 14.49536489 -3.11219323 7.2617842 0 0 Z " fill="#FEB61A" transform="translate(86,0)"/>
<path d="M0 0 C0.66 0 1.32 0 2 0 C11.46177487 21.39380351 20.66537306 42.89422687 29.81787109 64.421875 C37.07989166 81.50160928 44.37259852 98.5678672 51.6875 115.625 C52.17079773 116.75204346 52.65409546 117.87908691 53.15203857 119.0402832 C55.02533452 123.40855721 56.89878773 127.77676359 58.77276611 132.14474487 C61.21119432 137.82843179 63.64836034 143.51265549 66.08349609 149.19775391 C70.52928205 159.57660879 74.97568614 169.95506656 79.453125 180.3203125 C80.40701291 182.5321083 81.36058029 184.74404188 82.31396484 186.95605469 C82.95829656 188.44907582 83.60387661 189.94155863 84.25048828 191.43359375 C85.2171936 193.66524827 86.17936556 195.89880792 87.140625 198.1328125 C87.43108704 198.80023468 87.72154907 199.46765686 88.02081299 200.15530396 C90 204.772264 90 204.772264 90 207 C68.88 207 47.76 207 26 207 C4.49023034 155.46617686 4.49023034 155.46617686 -3.95092773 134.73999023 C-7.21349367 126.73803254 -10.51570159 118.75569223 -13.89259338 110.80117798 C-15.68650286 106.57265834 -17.46832327 102.33908688 -19.24972534 98.10528564 C-20.11780519 96.05189752 -20.99183843 94.00101502 -21.87210083 91.95281982 C-23.09782121 89.0996825 -24.30278146 86.23856084 -25.50390625 83.375 C-25.8738269 82.52886139 -26.24374756 81.68272278 -26.62487793 80.8109436 C-29.43274735 74.02617465 -29.032284 69.48650444 -26.39282227 62.63891602 C-25.70909477 61.00702978 -25.01645103 59.37885957 -24.31640625 57.75390625 C-23.94481888 56.87305359 -23.57323151 55.99220093 -23.19038391 55.08465576 C-21.98869006 52.24064855 -20.77568965 49.40161977 -19.5625 46.5625 C-18.7382598 44.61713428 -17.91485648 42.67141377 -17.09228516 40.7253418 C-15.47313644 36.89674728 -13.85025051 33.06977518 -12.22412109 29.24414062 C-9.40830406 22.61379461 -6.63665915 15.96556409 -3.875 9.3125 C-3.10168779 7.45437494 -2.32826692 5.59629509 -1.5546875 3.73828125 C-1.03639576 2.49221352 -0.51813792 1.24613169 0 0 Z " fill="#FEFEFE" transform="translate(158,7)"/>
<path d="M0 0 C0.33 0 0.66 0 1 0 C1 49.17 1 98.34 1 149 C0.67 149 0.34 149 0 149 C0 99.83 0 50.66 0 0 Z " fill="#FFFFFF" transform="translate(256,64)"/>
<path d="M0 0 C0.33 0 0.66 0 1 0 C1 34.32 1 68.64 1 104 C0.67 104 0.34 104 0 104 C0 69.68 0 35.36 0 0 Z " fill="#FFFFFF" transform="translate(405,108)"/>
<path d="M0 0 C0.33 0 0.66 0 1 0 C1 32.34 1 64.68 1 98 C0.67 98 0.34 98 0 98 C0 65.66 0 33.32 0 0 Z " fill="#FFFFFF" transform="translate(355,114)"/>
<path d="M0 0 C0.33 0 0.66 0 1 0 C1 30.03 1 60.06 1 91 C0.67 91 0.34 91 0 91 C0 60.97 0 30.94 0 0 Z " fill="#FEFEFE" transform="translate(306,121)"/>
<path d="M0 0 C20.79 0 41.58 0 63 0 C63 0.33 63 0.66 63 1 C42.21 1 21.42 1 0 1 C0 0.67 0 0.34 0 0 Z " fill="#FEFEFE" transform="translate(184,215)"/>
<path d="M0 0 C19.47 0 38.94 0 59 0 C59 0.33 59 0.66 59 1 C39.53 1 20.06 1 0 1 C0 0.67 0 0.34 0 0 Z " fill="#F3F335" transform="translate(0,215)"/>
<path d="M0 0 C15.18 0 30.36 0 46 0 C46 0.33 46 0.66 46 1 C30.82 1 15.64 1 0 1 C0 0.67 0 0.34 0 0 Z " fill="#FFFFFF" transform="translate(258,214)"/>
<path d="M0 0 C15.18 0 30.36 0 46 0 C46 0.33 46 0.66 46 1 C30.82 1 15.64 1 0 1 C0 0.67 0 0.34 0 0 Z " fill="#FFFFFF" transform="translate(358,213)"/>
<path d="M0 0 C14.85 0 29.7 0 45 0 C45 0.33 45 0.66 45 1 C30.15 1 15.3 1 0 1 C0 0.67 0 0.34 0 0 Z " fill="#FFFFFF" transform="translate(682,63)"/>
<path d="M0 0 C14.85 0 29.7 0 45 0 C45 0.33 45 0.66 45 1 C30.15 1 15.3 1 0 1 C0 0.67 0 0.34 0 0 Z " fill="#FFFFFF" transform="translate(258,62)"/>
<path d="M0 0 C14.52 0 29.04 0 44 0 C44 0.33 44 0.66 44 1 C29.48 1 14.96 1 0 1 C0 0.67 0 0.34 0 0 Z " fill="#FFFFFF" transform="translate(568,63)"/>
<path d="M0 0 C0.96744141 -0.00386719 1.93488281 -0.00773437 2.93164062 -0.01171875 C7.71230935 -0.00517437 12.23791235 0.12643669 16.9375 1.125 C16.9375 1.455 16.9375 1.785 16.9375 2.125 C5.3875 2.125 -6.1625 2.125 -18.0625 2.125 C-18.0625 1.795 -18.0625 1.465 -18.0625 1.125 C-12.01909143 0.06593257 -6.1266877 -0.02458871 0 0 Z " fill="#FFFFFF" transform="translate(494.0625,57.875)"/>
<path d="M0 0 C9.24 0 18.48 0 28 0 C28 0.33 28 0.66 28 1 C18.76 1 9.52 1 0 1 C0 0.67 0 0.34 0 0 Z " fill="#FFFFFF" transform="translate(784,59)"/>
<path d="M0 0 C6.93 0 13.86 0 21 0 C21 0.33 21 0.66 21 1 C14.07 1 7.14 1 0 1 C0 0.67 0 0.34 0 0 Z " fill="#FFFFFF" transform="translate(481,216)"/>
<path d="M0 0 C0.33 0 0.66 0 1 0 C1 5.94 1 11.88 1 18 C0.67 18 0.34 18 0 18 C0 12.06 0 6.12 0 0 Z " fill="#FFFFFF" transform="translate(428,99)"/>
<path d="M0 0 C0.625 1.8125 0.625 1.8125 1 4 C0.01 5.485 0.01 5.485 -1 7 C-1.66 7 -2.32 7 -3 7 C-2.625 4.0625 -2.625 4.0625 -2 1 C-1.34 0.67 -0.68 0.34 0 0 Z " fill="#FBBA24" transform="translate(63,59)"/>
<path d="M0 0 C5.61 0 11.22 0 17 0 C17 0.33 17 0.66 17 1 C11.39 1 5.78 1 0 1 C0 0.67 0 0.34 0 0 Z " fill="#FFFFFF" transform="translate(787,180)"/>
<path d="M0 0 C0.33 0 0.66 0 1 0 C1.22134176 2.12368444 1.42670007 4.24904024 1.625 6.375 C1.74101562 7.55835937 1.85703125 8.74171875 1.9765625 9.9609375 C1.98429687 10.96382812 1.99203125 11.96671875 2 13 C1.34 13.66 0.68 14.32 0 15 C0 10.05 0 5.1 0 0 Z " fill="#FFFFFF" transform="translate(305,65)"/>
<path d="M0 0 C4.29 0 8.58 0 13 0 C13 0.33 13 0.66 13 1 C8.71 1 4.42 1 0 1 C0 0.67 0 0.34 0 0 Z " fill="#FFFFFF" transform="translate(779,216)"/>
<path d="M0 0 C0.33 0 0.66 0 1 0 C2.03039555 4.53374042 2.17766075 5.64467851 0 10 C0 6.7 0 3.4 0 0 Z " fill="#FFFFFF" transform="translate(512,164)"/>
<path d="M0 0 C3.3 0 6.6 0 10 0 C10 0.33 10 0.66 10 1 C6.7 1 3.4 1 0 1 C0 0.67 0 0.34 0 0 Z " fill="#FFFFFF" transform="translate(494,95)"/>
<path d="M0 0 C2.97 0 5.94 0 9 0 C9 0.33 9 0.66 9 1 C6.03 1 3.06 1 0 1 C0 0.67 0 0.34 0 0 Z " fill="#FFFFFF" transform="translate(802,216)"/>
<path d="M0 0 C2.97 0 5.94 0 9 0 C9 0.33 9 0.66 9 1 C6.03 1 3.06 1 0 1 C0 0.67 0 0.34 0 0 Z " fill="#FFFFFF" transform="translate(801,96)"/>
<path d="M0 0 C2.64 0 5.28 0 8 0 C8 0.33 8 0.66 8 1 C5.36 1 2.72 1 0 1 C0 0.67 0 0.34 0 0 Z " fill="#FFFFFF" transform="translate(503,215)"/>
<path d="M0 0 C0.33 0 0.66 0 1 0 C1 2.64 1 5.28 1 8 C0.67 8 0.34 8 0 8 C0 5.36 0 2.72 0 0 Z " fill="#FFFFFF" transform="translate(816,166)"/>
<path d="M0 0 C0.33 0 0.66 0 1 0 C1 2.64 1 5.28 1 8 C0.67 8 0.34 8 0 8 C0 5.36 0 2.72 0 0 Z " fill="#FFFFFF" transform="translate(557,158)"/>
<path d="M0 0 C1.0625 1.8125 1.0625 1.8125 2 4 C1.67 4.99 1.34 5.98 1 7 C0.67 4.69 0.34 2.38 0 0 Z " fill="#FFFFFF" transform="translate(429,117)"/>
<path d="M0 0 C2.31 0.33 4.62 0.66 7 1 C4 2 4 2 1.8125 1.0625 C1.214375 0.711875 0.61625 0.36125 0 0 Z " fill="#FFFFFF" transform="translate(487,117)"/>
<path d="M0 0 C0.33 0 0.66 0 1 0 C1 2.64 1 5.28 1 8 C0.67 8 0.34 8 0 8 C0 5.36 0 2.72 0 0 Z " fill="#FFFFFF" transform="translate(777,103)"/>
<path d="M0 0 C2.31 0 4.62 0 7 0 C7 0.33 7 0.66 7 1 C4.69 1 2.38 1 0 1 C0 0.67 0 0.34 0 0 Z " fill="#FFFFFF" transform="translate(464,214)"/>
<path d="M0 0 C0 0.99 0 1.98 0 3 C-0.99 3 -1.98 3 -3 3 C-2.01 2.01 -1.02 1.02 0 0 Z " fill="#FFFFFF" transform="translate(850,197)"/>
<path d="M0 0 C0.33 0 0.66 0 1 0 C1 2.31 1 4.62 1 7 C0.67 7 0.34 7 0 7 C0 4.69 0 2.38 0 0 Z " fill="#FFFFFF" transform="translate(557,172)"/>
<path d="M0 0 C0.33 0 0.66 0 1 0 C1 2.31 1 4.62 1 7 C0.67 7 0.34 7 0 7 C0 4.69 0 2.38 0 0 Z " fill="#FFFFFF" transform="translate(473,103)"/>
<path d="M0 0 C0.33 0 0.66 0 1 0 C1 2.31 1 4.62 1 7 C0.67 7 0.34 7 0 7 C0 4.69 0 2.38 0 0 Z " fill="#FFFFFF" transform="translate(404,101)"/>
<path d="M0 0 C2.31 0 4.62 0 7 0 C7 0.33 7 0.66 7 1 C4.69 1 2.38 1 0 1 C0 0.67 0 0.34 0 0 Z " fill="#FFFFFF" transform="translate(337,59)"/>
<path d="M0 0 C0.33 0.99 0.66 1.98 1 3 C0.34 3.66 -0.32 4.32 -1 5 C-0.67 3.35 -0.34 1.7 0 0 Z " fill="#FFFFFF" transform="translate(603,252)"/>
<path d="M0 0 C0.66 0.66 1.32 1.32 2 2 C1.67 2.99 1.34 3.98 1 5 C0.67 3.35 0.34 1.7 0 0 Z " fill="#FEFEFE" transform="translate(180,207)"/>
<path d="M0 0 C0.33 0.99 0.66 1.98 1 3 C0.34 3.66 -0.32 4.32 -1 5 C-0.67 3.35 -0.34 1.7 0 0 Z " fill="#FFFFFF" transform="translate(674,197)"/>
<path d="M0 0 C0.66 0.66 1.32 1.32 2 2 C1.67 2.99 1.34 3.98 1 5 C0.67 3.35 0.34 1.7 0 0 Z " fill="#FFFFFF" transform="translate(175,195)"/>
<path d="M0 0 C1.98 0 3.96 0 6 0 C6 0.33 6 0.66 6 1 C4.02 1 2.04 1 0 1 C0 0.67 0 0.34 0 0 Z " fill="#FFFFFF" transform="translate(473,178)"/>
<path d="M0 0 C0.33 0.99 0.66 1.98 1 3 C0.34 3.66 -0.32 4.32 -1 5 C-0.67 3.35 -0.34 1.7 0 0 Z " fill="#D86517" transform="translate(13,173)"/>
<path d="M0 0 C0.33 0 0.66 0 1 0 C1 1.98 1 3.96 1 6 C0.67 6 0.34 6 0 6 C0 4.02 0 2.04 0 0 Z " fill="#FFFFFF" transform="translate(558,166)"/>
<path d="M0 0 C0.33 0.99 0.66 1.98 1 3 C0.34 3.66 -0.32 4.32 -1 5 C-0.67 3.35 -0.34 1.7 0 0 Z " fill="#FEFEFE" transform="translate(690,158)"/>
<path d="M0 0 C0.66 0.66 1.32 1.32 2 2 C1.67 2.99 1.34 3.98 1 5 C0.67 3.35 0.34 1.7 0 0 Z " fill="#FFFFFF" transform="translate(154,144)"/>
<path d="M0 0 C0.33 0.99 0.66 1.98 1 3 C0.34 3.66 -0.32 4.32 -1 5 C-0.67 3.35 -0.34 1.7 0 0 Z " fill="#FFFFFF" transform="translate(655,125)"/>
<path d="M0 0 C0.33 0.99 0.66 1.98 1 3 C0.34 3.66 -0.32 4.32 -1 5 C-0.67 3.35 -0.34 1.7 0 0 Z " fill="#E3B72A" transform="translate(33,124)"/>
<path d="M0 0 C0.66 0.66 1.32 1.32 2 2 C1.67 2.99 1.34 3.98 1 5 C0.67 3.35 0.34 1.7 0 0 Z " fill="#FFFFFF" transform="translate(636,119)"/>
<path d="M0 0 C0.33 0.99 0.66 1.98 1 3 C0.34 3.66 -0.32 4.32 -1 5 C-0.67 3.35 -0.34 1.7 0 0 Z " fill="#F4B828" transform="translate(44,97)"/>
<path d="M0 0 C0.33 0.99 0.66 1.98 1 3 C0.34 3.66 -0.32 4.32 -1 5 C-0.67 3.35 -0.34 1.7 0 0 Z " fill="#FEFEFE" transform="translate(547,95)"/>
<path d="M0 0 C1.98 0 3.96 0 6 0 C6 0.33 6 0.66 6 1 C4.02 1 2.04 1 0 1 C0 0.67 0 0.34 0 0 Z " fill="#FFFFFF" transform="translate(794,95)"/>
<path d="M0 0 C1.98 0 3.96 0 6 0 C6 0.33 6 0.66 6 1 C4.02 1 2.04 1 0 1 C0 0.67 0 0.34 0 0 Z " fill="#FFFFFF" transform="translate(485,95)"/>
<path d="M0 0 C0.66 0.66 1.32 1.32 2 2 C1.67 2.99 1.34 3.98 1 5 C0.67 3.35 0.34 1.7 0 0 Z " fill="#FFFFFF" transform="translate(133,93)"/>
<path d="M0 0 C0.33 0.99 0.66 1.98 1 3 C0.34 3.66 -0.32 4.32 -1 5 C-0.67 3.35 -0.34 1.7 0 0 Z " fill="#FFFFFF" transform="translate(676,74)"/>
<path d="M0 0 C0.66 0.66 1.32 1.32 2 2 C1.67 2.99 1.34 3.98 1 5 C0.67 3.35 0.34 1.7 0 0 Z " fill="#FFFFFF" transform="translate(178,46)"/>
<path d="M0 0 C0.33 0.99 0.66 1.98 1 3 C0.34 3.66 -0.32 4.32 -1 5 C-0.67 3.35 -0.34 1.7 0 0 Z " fill="#FDFFFF" transform="translate(150,21)"/>
<path d="M0 0 C0.33 0.99 0.66 1.98 1 3 C0.34 3.66 -0.32 4.32 -1 5 C-0.67 3.35 -0.34 1.7 0 0 Z " fill="#E39121" transform="translate(141,13)"/>
<path d="M0 0 C0.33 0.99 0.66 1.98 1 3 C0.34 3.66 -0.32 4.32 -1 5 C-0.67 3.35 -0.34 1.7 0 0 Z " fill="#FDFFFF" transform="translate(155,9)"/>
<path d="M0 0 C1.65 0 3.3 0 5 0 C5 0.33 5 0.66 5 1 C3.35 1 1.7 1 0 1 C0 0.67 0 0.34 0 0 Z " fill="#FEFEFE" transform="translate(511,214)"/>
<path d="M0 0 C1.65 0 3.3 0 5 0 C5 0.33 5 0.66 5 1 C3.35 1 1.7 1 0 1 C0 0.67 0 0.34 0 0 Z " fill="#FFFFFF" transform="translate(459,213)"/>
<path d="M0 0 C1.65 0 3.3 0 5 0 C5 0.33 5 0.66 5 1 C3.35 1 1.7 1 0 1 C0 0.67 0 0.34 0 0 Z " fill="#FFFFFF" transform="translate(785,155)"/>
<path d="M0 0 C1.65 0 3.3 0 5 0 C5 0.33 5 0.66 5 1 C3.35 1 1.7 1 0 1 C0 0.67 0 0.34 0 0 Z " fill="#FFFFFF" transform="translate(484,155)"/>
<path d="M0 0 C1.32 0.33 2.64 0.66 4 1 C3.01 1.495 3.01 1.495 2 2 C1.34 1.34 0.68 0.68 0 0 Z " fill="#FEFEFE" transform="translate(527,127)"/>
<path d="M0 0 C1.65 0 3.3 0 5 0 C5 0.33 5 0.66 5 1 C3.35 1 1.7 1 0 1 C0 0.67 0 0.34 0 0 Z " fill="#FFFFFF" transform="translate(805,121)"/>
<path d="M0 0 C1.65 0 3.3 0 5 0 C5 0.33 5 0.66 5 1 C3.35 1 1.7 1 0 1 C0 0.67 0 0.34 0 0 Z " fill="#FFFFFF" transform="translate(499,120)"/>
<path d="M0 0 C0.33 0 0.66 0 1 0 C1 1.65 1 3.3 1 5 C0.67 5 0.34 5 0 5 C0 3.35 0 1.7 0 0 Z " fill="#FFFFFF" transform="translate(732,113)"/>
<path d="M0 0 C0.33 0 0.66 0 1 0 C1 1.65 1 3.3 1 5 C0.67 5 0.34 5 0 5 C0 3.35 0 1.7 0 0 Z " fill="#FFFFFF" transform="translate(732,99)"/>
<path d="M0 0 C1.65 0 3.3 0 5 0 C5 0.33 5 0.66 5 1 C3.35 1 1.7 1 0 1 C0 0.67 0 0.34 0 0 Z " fill="#FFFFFF" transform="translate(504,96)"/>
<path d="M0 0 C0.33 0 0.66 0 1 0 C1 1.65 1 3.3 1 5 C0.67 5 0.34 5 0 5 C0 3.35 0 1.7 0 0 Z " fill="#FFFFFD" transform="translate(127,76)"/>
<path d="M0 0 C0.99 0.495 0.99 0.495 2 1 C1.67 1.99 1.34 2.98 1 4 C0.67 2.68 0.34 1.36 0 0 Z " fill="#FFFFFF" transform="translate(565,65)"/>
<path d="M0 0 C1.65 0 3.3 0 5 0 C5 0.33 5 0.66 5 1 C3.35 1 1.7 1 0 1 C0 0.67 0 0.34 0 0 Z " fill="#FFFFFF" transform="translate(812,60)"/>
<path d="M0 0 C4 1 4 1 4 1 Z " fill="#FFFFFF" transform="translate(818,214)"/>
<path d="M0 0 C4 1 4 1 4 1 Z " fill="#FFFFFF" transform="translate(761,213)"/>
<path d="M0 0 C4 1 4 1 4 1 Z " fill="#FEFEFE" transform="translate(516,213)"/>
<path d="M0 0 C4 1 4 1 4 1 Z " fill="#FFFFFF" transform="translate(757,212)"/>
<path d="M0 0 C4 1 4 1 4 1 Z " fill="#FEFEFE" transform="translate(520,212)"/>
<path d="M0 0 C4 1 4 1 4 1 Z " fill="#FFFFFF" transform="translate(455,212)"/>
<path d="M0 0 C1 4 1 4 1 4 Z " fill="#FFFFFF" transform="translate(423,193)"/>
<path d="M0 0 C4 1 4 1 4 1 Z " fill="#FFFFFF" transform="translate(804,179)"/>
<path d="M0 0 C4 1 4 1 4 1 Z " fill="#FFFFFF" transform="translate(799,158)"/>
<path d="M0 0 C1 4 1 4 1 4 Z " fill="#FFFFFF" transform="translate(556,154)"/>
<path d="M0 0 C4 1 4 1 4 1 Z " fill="#FFFFFF" transform="translate(781,154)"/>
<path d="M0 0 C4 1 4 1 4 1 Z " fill="#FFFFFF" transform="translate(480,154)"/>
<path d="M0 0 C4 1 4 1 4 1 Z " fill="#FFFFFF" transform="translate(777,153)"/>
<path d="M0 0 C4 1 4 1 4 1 Z " fill="#FFFFFF" transform="translate(476,153)"/>
<path d="M0 0 C4 1 4 1 4 1 Z " fill="#FFFFFF" transform="translate(472,152)"/>
<path d="M0 0 C0.99 0.495 0.99 0.495 2 1 C1.67 1.66 1.34 2.32 1 3 C0.67 2.01 0.34 1.02 0 0 Z " fill="#FFFFFF" transform="translate(646,144)"/>
<path d="M0 0 C4 1 4 1 4 1 Z " fill="#FFFFFF" transform="translate(810,122)"/>
<path d="M0 0 C4 1 4 1 4 1 Z " fill="#FFFFFF" transform="translate(801,120)"/>
<path d="M0 0 C4 1 4 1 4 1 Z " fill="#FFFFFF" transform="translate(797,119)"/>
<path d="M0 0 C1 4 1 4 1 4 Z " fill="#FFFFFF" transform="translate(354,110)"/>
<path d="M0 0 C4 1 4 1 4 1 Z " fill="#FFFFFF" transform="translate(814,98)"/>
<path d="M0 0 C1 4 1 4 1 4 Z " fill="#FFFFFF" transform="translate(403,97)"/>
<path d="M0 0 C4 1 4 1 4 1 Z " fill="#FFFFFF" transform="translate(810,97)"/>
<path d="M0 0 C4 1 4 1 4 1 Z " fill="#FEFEFE" transform="translate(509,97)"/>
<path d="M0 0 C1 4 1 4 1 4 Z " fill="#FFFFFF" transform="translate(733,95)"/>
<path d="M0 0 C1 4 1 4 1 4 Z " fill="#FFFFFF" transform="translate(429,95)"/>
<path d="M0 0 C0.99 0.33 1.98 0.66 3 1 C2.01 1 1.02 1 0 1 C0 0.67 0 0.34 0 0 Z " fill="#FFFFFF" transform="translate(548,74)"/>
<path d="M0 0 C4 1 4 1 4 1 Z " fill="#FFFFFF" transform="translate(818,61)"/>
<path d="M0 0 C4 1 4 1 4 1 Z " fill="#FFFFFF" transform="translate(774,61)"/>
<path d="M0 0 C4 1 4 1 4 1 Z " fill="#FFFFFF" transform="translate(468,61)"/>
<path d="M0 0 C4 1 4 1 4 1 Z " fill="#FFFFFF" transform="translate(779,60)"/>
<path d="M0 0 C4 1 4 1 4 1 Z " fill="#FFFFFF" transform="translate(472,60)"/>
<path d="" fill="#FFFFFF" transform="translate(0,0)"/>
<path d="" fill="#FFFFFF" transform="translate(0,0)"/>
<path d="" fill="#FFFFFF" transform="translate(0,0)"/>
<path d="" fill="#FFFFFF" transform="translate(0,0)"/>
<path d="" fill="#FFFFFF" transform="translate(0,0)"/>
<path d="" fill="#FFFFFF" transform="translate(0,0)"/>
<path d="" fill="#FFFFFF" transform="translate(0,0)"/>
<path d="" fill="#FEFEFE" transform="translate(0,0)"/>
<path d="" fill="#FFFFFF" transform="translate(0,0)"/>
<path d="" fill="#FFFFFF" transform="translate(0,0)"/>
<path d="" fill="#FEFEFE" transform="translate(0,0)"/>
<path d="" fill="#FFFFFF" transform="translate(0,0)"/>
<path d="" fill="#FFFFFF" transform="translate(0,0)"/>
<path d="" fill="#FFFFFF" transform="translate(0,0)"/>
<path d="" fill="#FFFFFF" transform="translate(0,0)"/>
<path d="" fill="#FFFFFF" transform="translate(0,0)"/>
<path d="M0 0 C3 1 3 1 3 1 Z " fill="#FFFFFF" transform="translate(826,212)"/>
<path d="M0 0 C3 1 3 1 3 1 Z " fill="#FFFFFF" transform="translate(754,211)"/>
<path d="M0 0 C3 1 3 1 3 1 Z " fill="#FFFFFF" transform="translate(452,211)"/>
<path d="" fill="#FFFFFF" transform="translate(0,0)"/>
<path d="" fill="#E2B723" transform="translate(0,0)"/>
<path d="M0 0 C3 1 3 1 3 1 Z " fill="#FFFFFF" transform="translate(446,209)"/>
<path d="M0 0 C3 1 3 1 3 1 Z " fill="#FFFFFF" transform="translate(443,208)"/>
<path d="" fill="#FFFFFF" transform="translate(0,0)"/>
<path d="" fill="#FAD50E" transform="translate(0,0)"/>
<path d="" fill="#FFFFFF" transform="translate(0,0)"/>
<path d="" fill="#F6D245" transform="translate(0,0)"/>
<path d="" fill="#E47C04" transform="translate(0,0)"/>
<path d="" fill="#FFFFFF" transform="translate(0,0)"/>
<path d="" fill="#DB9416" transform="translate(0,0)"/>
<path d="" fill="#F2CA3F" transform="translate(0,0)"/>
<path d="" fill="#FFFFFF" transform="translate(0,0)"/>
<path d="" fill="#FFFFFF" transform="translate(0,0)"/>
<path d="" fill="#FFFFFF" transform="translate(0,0)"/>
<path d="" fill="#FFFFFF" transform="translate(0,0)"/>
<path d="" fill="#E99113" transform="translate(0,0)"/>
<path d="" fill="#F7C131" transform="translate(0,0)"/>
<path d="" fill="#FFFFFF" transform="translate(0,0)"/>
<path d="" fill="#FFFFFF" transform="translate(0,0)"/>
<path d="" fill="#FFFFFF" transform="translate(0,0)"/>
<path d="" fill="#FFFFFF" transform="translate(0,0)"/>
<path d="" fill="#FFFFFF" transform="translate(0,0)"/>
<path d="" fill="#FFFFFF" transform="translate(0,0)"/>
<path d="" fill="#FFFFFF" transform="translate(0,0)"/>
<path d="" fill="#FFFFFF" transform="translate(0,0)"/>
<path d="" fill="#F8DE17" transform="translate(0,0)"/>
<path d="" fill="#FFFFFF" transform="translate(0,0)"/>
<path d="" fill="#FFFFFF" transform="translate(0,0)"/>
<path d="" fill="#FFFFFF" transform="translate(0,0)"/>
<path d="" fill="#FFFFFF" transform="translate(0,0)"/>
<path d="" fill="#FFFFFF" transform="translate(0,0)"/>
<path d="" fill="#FFFFFF" transform="translate(0,0)"/>
<path d="" fill="#E8B917" transform="translate(0,0)"/>
<path d="" fill="#FAD71E" transform="translate(0,0)"/>
<path d="M0 0 C3 1 3 1 3 1 Z " fill="#FFFFFF" transform="translate(771,177)"/>
<path d="M0 0 C3 1 3 1 3 1 Z " fill="#FFFFFF" transform="translate(470,177)"/>
<path d="" fill="#FFFFFF" transform="translate(0,0)"/>
<path d="" fill="#FFFFFF" transform="translate(0,0)"/>
<path d="" fill="#FFFFFF" transform="translate(0,0)"/>
<path d="" fill="#FFFFFF" transform="translate(0,0)"/>
<path d="" fill="#FFFFFF" transform="translate(0,0)"/>
<path d="" fill="#FFFFFF" transform="translate(0,0)"/>
<path d="" fill="#FFFFFF" transform="translate(0,0)"/>
<path d="" fill="#CFA727" transform="translate(0,0)"/>
<path d="" fill="#FFFFFF" transform="translate(0,0)"/>
<path d="" fill="#FFFFFF" transform="translate(0,0)"/>
<path d="" fill="#DD7813" transform="translate(0,0)"/>
<path d="" fill="#FFFFFF" transform="translate(0,0)"/>
<path d="" fill="#FFFFFF" transform="translate(0,0)"/>
<path d="" fill="#FFFFFF" transform="translate(0,0)"/>
<path d="" fill="#DB7813" transform="translate(0,0)"/>
<path d="" fill="#FFFFFF" transform="translate(0,0)"/>
<path d="" fill="#FCDA09" transform="translate(0,0)"/>
<path d="" fill="#FFFFFF" transform="translate(0,0)"/>
<path d="" fill="#FFFFFF" transform="translate(0,0)"/>
<path d="M0 0 C3 1 3 1 3 1 Z " fill="#FFFFFF" transform="translate(498,158)"/>
<path d="" fill="#FFFFFF" transform="translate(0,0)"/>
<path d="" fill="#F6D23D" transform="translate(0,0)"/>
<path d="" fill="#EBBB27" transform="translate(0,0)"/>
<path d="" fill="#FFFFFF" transform="translate(0,0)"/>
<path d="" fill="#FFFFFF" transform="translate(0,0)"/>
<path d="" fill="#FFFFFF" transform="translate(0,0)"/>
<path d="" fill="#EDB43A" transform="translate(0,0)"/>
<path d="" fill="#FFFFFF" transform="translate(0,0)"/>
<path d="" fill="#FFFFFF" transform="translate(0,0)"/>
<path d="" fill="#FFFFFF" transform="translate(0,0)"/>
<path d="M0 0 C3 1 3 1 3 1 Z " fill="#FFFFFF" transform="translate(760,148)"/>
<path d="" fill="#FFFFFF" transform="translate(0,0)"/>
<path d="" fill="#FFFFFF" transform="translate(0,0)"/>
<path d="" fill="#FFFFFF" transform="translate(0,0)"/>
<path d="" fill="#FCF330" transform="translate(0,0)"/>
<path d="" fill="#FFFFFF" transform="translate(0,0)"/>
<path d="" fill="#FFFFFF" transform="translate(0,0)"/>
<path d="" fill="#F3D936" transform="translate(0,0)"/>
<path d="M0 0 C0.66 0 1.32 0 2 0 C1.67 0.66 1.34 1.32 1 2 C0.67 1.34 0.34 0.68 0 0 Z " fill="#FFFFFF" transform="translate(547,140)"/>
<path d="" fill="#FFFFFF" transform="translate(0,0)"/>
<path d="" fill="#FFFFFF" transform="translate(0,0)"/>
<path d="" fill="#FFFFFF" transform="translate(0,0)"/>
<path d="" fill="#FFFFFF" transform="translate(0,0)"/>
<path d="" fill="#F6D82F" transform="translate(0,0)"/>
<path d="" fill="#FFFFFF" transform="translate(0,0)"/>
<path d="" fill="#DF860E" transform="translate(0,0)"/>
<path d="" fill="#FFFFFF" transform="translate(0,0)"/>
<path d="" fill="#FFFFFF" transform="translate(0,0)"/>
<path d="" fill="#FFFFFF" transform="translate(0,0)"/>
<path d="" fill="#FFFFFF" transform="translate(0,0)"/>
<path d="" fill="#FFFFFF" transform="translate(0,0)"/>
<path d="" fill="#FDD718" transform="translate(0,0)"/>
<path d="" fill="#FFFFFF" transform="translate(0,0)"/>
<path d="" fill="#F6D90F" transform="translate(0,0)"/>
<path d="M0 0 C3 1 3 1 3 1 Z " fill="#FFFFFF" transform="translate(825,126)"/>
<path d="" fill="#FFFFFF" transform="translate(0,0)"/>
<path d="M0 0 C3 1 3 1 3 1 Z " fill="#FFFFFF" transform="translate(822,125)"/>
<path d="" fill="#FFFFFF" transform="translate(0,0)"/>
<path d="M0 0 C3 1 3 1 3 1 Z " fill="#FFFFFF" transform="translate(818,124)"/>
<path d="" fill="#FFFFFF" transform="translate(0,0)"/>
<path d="M0 0 C3 1 3 1 3 1 Z " fill="#FFFFFF" transform="translate(814,123)"/>
<path d="" fill="#FFFFFF" transform="translate(0,0)"/>
<path d="M0 0 C3 1 3 1 3 1 Z " fill="#FEFEFE" transform="translate(514,123)"/>
<path d="" fill="#FFFFFF" transform="translate(0,0)"/>
<path d="" fill="#FFFFFF" transform="translate(0,0)"/>
<path d="" fill="#FFFFFF" transform="translate(0,0)"/>
<path d="" fill="#EC8C10" transform="translate(0,0)"/>
<path d="M0 0 C3 1 3 1 3 1 Z " fill="#FFFFFF" transform="translate(496,119)"/>
<path d="" fill="#FEFEFE" transform="translate(0,0)"/>
<path d="" fill="#FFFFFF" transform="translate(0,0)"/>
<path d="" fill="#FFFFFF" transform="translate(0,0)"/>
<path d="" fill="#FFFFFF" transform="translate(0,0)"/>
<path d="" fill="#FFFFFF" transform="translate(0,0)"/>
<path d="" fill="#EEBB2F" transform="translate(0,0)"/>
<path d="" fill="#FFFFFF" transform="translate(0,0)"/>
<path d="" fill="#FEFEFE" transform="translate(0,0)"/>
<path d="" fill="#F2B916" transform="translate(0,0)"/>
<path d="" fill="#FFFFFF" transform="translate(0,0)"/>
<path d="" fill="#FFFFFF" transform="translate(0,0)"/>
<path d="" fill="#FFFFFF" transform="translate(0,0)"/>
<path d="" fill="#FFFFFF" transform="translate(0,0)"/>
<path d="" fill="#FFFFFF" transform="translate(0,0)"/>
<path d="" fill="#ED8F19" transform="translate(0,0)"/>
<path d="" fill="#FFFFFF" transform="translate(0,0)"/>
<path d="" fill="#FFFFFF" transform="translate(0,0)"/>
<path d="" fill="#F4B835" transform="translate(0,0)"/>
<path d="" fill="#FFFFFF" transform="translate(0,0)"/>
<path d="" fill="#FFFFFF" transform="translate(0,0)"/>
<path d="" fill="#FFFFFF" transform="translate(0,0)"/>
<path d="" fill="#FFFFFF" transform="translate(0,0)"/>
<path d="" fill="#FFFFFF" transform="translate(0,0)"/>
<path d="" fill="#FEFEFE" transform="translate(0,0)"/>
<path d="" fill="#E6BA1F" transform="translate(0,0)"/>
<path d="" fill="#FFFFFF" transform="translate(0,0)"/>
<path d="" fill="#FACF4A" transform="translate(0,0)"/>
<path d="" fill="#FFFFFF" transform="translate(0,0)"/>
<path d="" fill="#FFFFFF" transform="translate(0,0)"/>
<path d="" fill="#FFFFFF" transform="translate(0,0)"/>
<path d="" fill="#FFFFFF" transform="translate(0,0)"/>
<path d="" fill="#D49B2F" transform="translate(0,0)"/>
<path d="" fill="#FFFFFF" transform="translate(0,0)"/>
<path d="" fill="#FFFFFF" transform="translate(0,0)"/>
<path d="" fill="#FFFFFF" transform="translate(0,0)"/>
<path d="" fill="#FFFFFF" transform="translate(0,0)"/>
<path d="" fill="#FFFFFF" transform="translate(0,0)"/>
<path d="" fill="#FFFFFF" transform="translate(0,0)"/>
<path d="" fill="#FFFFFF" transform="translate(0,0)"/>
<path d="" fill="#FFFFFF" transform="translate(0,0)"/>
<path d="" fill="#FFFFFF" transform="translate(0,0)"/>
<path d="" fill="#FFFFFF" transform="translate(0,0)"/>
<path d="" fill="#FFFFFF" transform="translate(0,0)"/>
<path d="" fill="#DD8107" transform="translate(0,0)"/>
<path d="" fill="#FFFFFF" transform="translate(0,0)"/>
<path d="" fill="#FEFFFF" transform="translate(0,0)"/>
<path d="" fill="#F1C33B" transform="translate(0,0)"/>
<path d="" fill="#FFFFFF" transform="translate(0,0)"/>
<path d="" fill="#FFFFFF" transform="translate(0,0)"/>
<path d="" fill="#FFFFFF" transform="translate(0,0)"/>
<path d="" fill="#FFFFFF" transform="translate(0,0)"/>
<path d="" fill="#FFFFFF" transform="translate(0,0)"/>
<path d="" fill="#FFFFFF" transform="translate(0,0)"/>
<path d="" fill="#FFFFFF" transform="translate(0,0)"/>
<path d="" fill="#FFFFFF" transform="translate(0,0)"/>
<path d="" fill="#FFFFFF" transform="translate(0,0)"/>
<path d="" fill="#FFFFFF" transform="translate(0,0)"/>
<path d="" fill="#FBC218" transform="translate(0,0)"/>
<path d="" fill="#FFFFFF" transform="translate(0,0)"/>
<path d="M0 0 C0.99 0.495 0.99 0.495 2 1 C1.01 1.495 1.01 1.495 0 2 C0 1.34 0 0.68 0 0 Z " fill="#FFFFFF" transform="translate(439,78)"/>
<path d="" fill="#FFFFFF" transform="translate(0,0)"/>
<path d="" fill="#F2C409" transform="translate(0,0)"/>
<path d="" fill="#FFFFFF" transform="translate(0,0)"/>
<path d="" fill="#F6D812" transform="translate(0,0)"/>
<path d="" fill="#FFFFFF" transform="translate(0,0)"/>
<path d="" fill="#FFFFFF" transform="translate(0,0)"/>
<path d="" fill="#FFFFFF" transform="translate(0,0)"/>
<path d="" fill="#D99112" transform="translate(0,0)"/>
<path d="" fill="#FFFFFF" transform="translate(0,0)"/>
<path d="" fill="#FCFFFF" transform="translate(0,0)"/>
<path d="" fill="#DB761B" transform="translate(0,0)"/>
<path d="" fill="#FFFFFF" transform="translate(0,0)"/>
<path d="" fill="#EA6B0A" transform="translate(0,0)"/>
<path d="M0 0 C3 1 3 1 3 1 Z " fill="#FFFFFF" transform="translate(832,65)"/>
<path d="" fill="#FFFFFF" transform="translate(0,0)"/>
<path d="" fill="#FAB512" transform="translate(0,0)"/>
<path d="M0 0 C3 1 3 1 3 1 Z " fill="#FFFFFF" transform="translate(527,64)"/>
<path d="M0 0 C3 1 3 1 3 1 Z " fill="#FFFFFF" transform="translate(517,61)"/>
<path d="" fill="#FFFFFF" transform="translate(0,0)"/>
<path d="" fill="#F9D522" transform="translate(0,0)"/>
<path d="M0 0 C3 1 3 1 3 1 Z " fill="#FFFFFF" transform="translate(512,60)"/>
<path d="M0 0 C3 1 3 1 3 1 Z " fill="#FFFFFF" transform="translate(367,60)"/>
<path d="M0 0 C3 1 3 1 3 1 Z " fill="#FFFFFF" transform="translate(334,60)"/>
<path d="" fill="#FFFFFF" transform="translate(0,0)"/>
<path d="" fill="#D88F35" transform="translate(0,0)"/>
<path d="" fill="#FFFFFF" transform="translate(0,0)"/>
<path d="" fill="#F6BD2F" transform="translate(0,0)"/>
<path d="" fill="#F7C633" transform="translate(0,0)"/>
<path d="" fill="#DC8B25" transform="translate(0,0)"/>
<path d="" fill="#EF9A1B" transform="translate(0,0)"/>
<path d="" fill="#FDFFFD" transform="translate(0,0)"/>
<path d="" fill="#D99A1D" transform="translate(0,0)"/>
<path d="" fill="#EFB32A" transform="translate(0,0)"/>
<path d="" fill="#FFFFFF" transform="translate(0,0)"/>
<path d="" fill="#FFFFFF" transform="translate(0,0)"/>
<path d="" fill="#F6D73B" transform="translate(0,0)"/>
<path d="" fill="#FFFFFF" transform="translate(0,0)"/>
<path d="" fill="#E9B71A" transform="translate(0,0)"/>
<path d="" fill="#F9BF1A" transform="translate(0,0)"/>
<path d="" fill="#FAD415" transform="translate(0,0)"/>
<path d="" fill="#FFFEFF" transform="translate(0,0)"/>
<path d="" fill="#EE8B19" transform="translate(0,0)"/>
<path d="" fill="#FFFFFD" transform="translate(0,0)"/>
<path d="" fill="#F0740A" transform="translate(0,0)"/>
<path d="" fill="#F7D911" transform="translate(0,0)"/>
<path d="" fill="#E48C0E" transform="translate(0,0)"/>
<path d="" fill="#D99925" transform="translate(0,0)"/>
<path d="" fill="#FBB00D" transform="translate(0,0)"/>
<path d="" fill="#FFFFFF" transform="translate(0,0)"/>
<path d="" fill="#FFFFFF" transform="translate(0,0)"/>
<path d="" fill="#FFFFFF" transform="translate(0,0)"/>
<path d="" fill="#FFFFFF" transform="translate(0,0)"/>
<path d="" fill="#FFFFFF" transform="translate(0,0)"/>
<path d="" fill="#FFFFFF" transform="translate(0,0)"/>
<path d="" fill="#FFFFFF" transform="translate(0,0)"/>
<path d="" fill="#FFFFFF" transform="translate(0,0)"/>
<path d="" fill="#FFFFFF" transform="translate(0,0)"/>
<path d="" fill="#FFFFFF" transform="translate(0,0)"/>
<path d="" fill="#FFFFFF" transform="translate(0,0)"/>
<path d="" fill="#FFFFFF" transform="translate(0,0)"/>
<path d="" fill="#FFFFFF" transform="translate(0,0)"/>
<path d="" fill="#FEFEFE" transform="translate(0,0)"/>
<path d="" fill="#FFFFFF" transform="translate(0,0)"/>
<path d="" fill="#FFFFFF" transform="translate(0,0)"/>
<path d="" fill="#FEFEFE" transform="translate(0,0)"/>
<path d="" fill="#FEFEFE" transform="translate(0,0)"/>
<path d="" fill="#FEFEFE" transform="translate(0,0)"/>
<path d="" fill="#FFFFFF" transform="translate(0,0)"/>
<path d="" fill="#FEFEFE" transform="translate(0,0)"/>
<path d="" fill="#FFFFFF" transform="translate(0,0)"/>
<path d="" fill="#FFFFFF" transform="translate(0,0)"/>
<path d="" fill="#FFFFFF" transform="translate(0,0)"/>
<path d="" fill="#FFFFFF" transform="translate(0,0)"/>
<path d="" fill="#FFFFFF" transform="translate(0,0)"/>
<path d="" fill="#FFFFFF" transform="translate(0,0)"/>
<path d="M0 0 C2 1 2 1 2 1 Z " fill="#FFFFFF" transform="translate(829,211)"/>
<path d="" fill="#FFFFFF" transform="translate(0,0)"/>
<path d="M0 0 C2 1 2 1 2 1 Z " fill="#FEFEFE" transform="translate(524,211)"/>
<path d="" fill="#FFFFFF" transform="translate(0,0)"/>
<path d="M0 0 C2 1 2 1 2 1 Z " fill="#FFFFFF" transform="translate(751,210)"/>
<path d="" fill="#FFFFFF" transform="translate(0,0)"/>
<path d="" fill="#FFFFFF" transform="translate(0,0)"/>
<path d="" fill="#F7D80A" transform="translate(0,0)"/>
<path d="M0 0 C2 1 2 1 2 1 Z " fill="#FFFFFF" transform="translate(441,207)"/>
<path d="M0 0 C2 1 2 1 2 1 Z " fill="#FFFFFF" transform="translate(839,206)"/>
<path d="M0 0 C2 1 2 1 2 1 Z " fill="#FFFFFF" transform="translate(741,206)"/>
<path d="" fill="#FFFFFF" transform="translate(0,0)"/>
<path d="M0 0 C2 1 2 1 2 1 Z " fill="#FFFFFF" transform="translate(439,206)"/>
<path d="" fill="#FFFFFF" transform="translate(0,0)"/>
<path d="" fill="#FFFFFF" transform="translate(0,0)"/>
<path d="" fill="#FFFFFF" transform="translate(0,0)"/>
<path d="" fill="#FFFFFF" transform="translate(0,0)"/>
<path d="" fill="#FFFFFF" transform="translate(0,0)"/>
<path d="" fill="#FFFFFF" transform="translate(0,0)"/>
<path d="" fill="#FFE926" transform="translate(0,0)"/>
<path d="" fill="#FFFFFF" transform="translate(0,0)"/>
<path d="" fill="#FFFFFF" transform="translate(0,0)"/>
<path d="" fill="#FFFFFF" transform="translate(0,0)"/>
<path d="" fill="#FCDC41" transform="translate(0,0)"/>
<path d="" fill="#F4C837" transform="translate(0,0)"/>
<path d="" fill="#FFFFFF" transform="translate(0,0)"/>
<path d="" fill="#F1A30F" transform="translate(0,0)"/>
<path d="" fill="#FFFFFF" transform="translate(0,0)"/>
<path d="" fill="#FFFFFF" transform="translate(0,0)"/>
<path d="" fill="#FFFFFF" transform="translate(0,0)"/>
<path d="" fill="#ED991A" transform="translate(0,0)"/>
<path d="" fill="#EA9A03" transform="translate(0,0)"/>
<path d="" fill="#FFFFFF" transform="translate(0,0)"/>
<path d="" fill="#FFFFFF" transform="translate(0,0)"/>
<path d="" fill="#FEFEFE" transform="translate(0,0)"/>
<path d="" fill="#FFFFFF" transform="translate(0,0)"/>
<path d="" fill="#FFFFFF" transform="translate(0,0)"/>
<path d="" fill="#FFFFFF" transform="translate(0,0)"/>
<path d="" fill="#FFFFFF" transform="translate(0,0)"/>
<path d="" fill="#FFFFFF" transform="translate(0,0)"/>
<path d="" fill="#FFFFFF" transform="translate(0,0)"/>
<path d="" fill="#E2A11F" transform="translate(0,0)"/>
<path d="" fill="#FFFFFF" transform="translate(0,0)"/>
<path d="" fill="#FFFFFF" transform="translate(0,0)"/>
<path d="" fill="#FFFFFF" transform="translate(0,0)"/>
<path d="" fill="#FFFFFF" transform="translate(0,0)"/>
<path d="" fill="#FFFFFF" transform="translate(0,0)"/>
<path d="" fill="#FFFFFF" transform="translate(0,0)"/>
<path d="" fill="#F9D125" transform="translate(0,0)"/>
<path d="" fill="#FFFFFF" transform="translate(0,0)"/>
<path d="" fill="#FFFFFF" transform="translate(0,0)"/>
<path d="" fill="#FFFFFF" transform="translate(0,0)"/>
<path d="" fill="#FB9D03" transform="translate(0,0)"/>
<path d="" fill="#FFFFFF" transform="translate(0,0)"/>
<path d="" fill="#FFFFFF" transform="translate(0,0)"/>
<path d="" fill="#FFFFFF" transform="translate(0,0)"/>
<path d="" fill="#EC9F13" transform="translate(0,0)"/>
<path d="" fill="#FFFFFF" transform="translate(0,0)"/>
<path d="" fill="#FFFFFF" transform="translate(0,0)"/>
<path d="" fill="#FFFFFF" transform="translate(0,0)"/>
<path d="" fill="#EDA50E" transform="translate(0,0)"/>
<path d="" fill="#FFFFFF" transform="translate(0,0)"/>
<path d="" fill="#FFFFFF" transform="translate(0,0)"/>
<path d="" fill="#FFFFFF" transform="translate(0,0)"/>
<path d="" fill="#FFF410" transform="translate(0,0)"/>
<path d="" fill="#FFFFFF" transform="translate(0,0)"/>
<path d="" fill="#FFFFFF" transform="translate(0,0)"/>
<path d="" fill="#FFE03A" transform="translate(0,0)"/>
<path d="" fill="#FFFFFF" transform="translate(0,0)"/>
<path d="" fill="#F7CF3C" transform="translate(0,0)"/>
<path d="" fill="#FFFFFF" transform="translate(0,0)"/>
<path d="" fill="#FFFFFF" transform="translate(0,0)"/>
<path d="" fill="#FFFFFF" transform="translate(0,0)"/>
<path d="" fill="#FFFFFF" transform="translate(0,0)"/>
<path d="" fill="#FFFFFF" transform="translate(0,0)"/>
<path d="" fill="#FFFFFF" transform="translate(0,0)"/>
<path d="" fill="#FFFFFF" transform="translate(0,0)"/>
<path d="" fill="#FFFFFF" transform="translate(0,0)"/>
<path d="" fill="#FFFFFF" transform="translate(0,0)"/>
<path d="" fill="#F1D11C" transform="translate(0,0)"/>
<path d="" fill="#FFFFFF" transform="translate(0,0)"/>
<path d="" fill="#FFFFFF" transform="translate(0,0)"/>
<path d="" fill="#FFFFFF" transform="translate(0,0)"/>
<path d="" fill="#FFFFFF" transform="translate(0,0)"/>
<path d="" fill="#FFEF24" transform="translate(0,0)"/>
<path d="" fill="#FFFFFF" transform="translate(0,0)"/>
<path d="" fill="#FFFFFF" transform="translate(0,0)"/>
<path d="" fill="#F58829" transform="translate(0,0)"/>
<path d="" fill="#FFFFFF" transform="translate(0,0)"/>
<path d="M0 0 C2 1 2 1 2 1 Z " fill="#FEFEFE" transform="translate(450,170)"/>
<path d="" fill="#FFFFFF" transform="translate(0,0)"/>
<path d="" fill="#FFFFFF" transform="translate(0,0)"/>
<path d="" fill="#FFFFFF" transform="translate(0,0)"/>
<path d="" fill="#FFFFFF" transform="translate(0,0)"/>
<path d="" fill="#EE9A13" transform="translate(0,0)"/>
<path d="" fill="#FFFFFF" transform="translate(0,0)"/>
<path d="" fill="#FFFFFF" transform="translate(0,0)"/>
<path d="" fill="#EB9D22" transform="translate(0,0)"/>
<path d="" fill="#FFFFFF" transform="translate(0,0)"/>
<path d="" fill="#FEFEFE" transform="translate(0,0)"/>
<path d="" fill="#FFFFFF" transform="translate(0,0)"/>
<path d="" fill="#FFFFFF" transform="translate(0,0)"/>
<path d="" fill="#FE980F" transform="translate(0,0)"/>
<path d="" fill="#FFFFFF" transform="translate(0,0)"/>
<path d="" fill="#FFFFFF" transform="translate(0,0)"/>
<path d="" fill="#FFFFFF" transform="translate(0,0)"/>
<path d="" fill="#FBDF20" transform="translate(0,0)"/>
<path d="" fill="#F9D241" transform="translate(0,0)"/>
<path d="" fill="#FFFFFF" transform="translate(0,0)"/>
<path d="" fill="#FFF212" transform="translate(0,0)"/>
<path d="" fill="#E9A20C" transform="translate(0,0)"/>
<path d="" fill="#FFFFFF" transform="translate(0,0)"/>
<path d="" fill="#FFFFFF" transform="translate(0,0)"/>
<path d="" fill="#FFFFFF" transform="translate(0,0)"/>
<path d="" fill="#FFFFFF" transform="translate(0,0)"/>
<path d="" fill="#FFFFFF" transform="translate(0,0)"/>
<path d="" fill="#F2C921" transform="translate(0,0)"/>
<path d="" fill="#FFFFFF" transform="translate(0,0)"/>
<path d="" fill="#F7D810" transform="translate(0,0)"/>
<path d="" fill="#FFFFFF" transform="translate(0,0)"/>
<path d="" fill="#FFFFFF" transform="translate(0,0)"/>
<path d="" fill="#FFFFFF" transform="translate(0,0)"/>
<path d="" fill="#FFFFFF" transform="translate(0,0)"/>
<path d="" fill="#F8C932" transform="translate(0,0)"/>
<path d="" fill="#FFFFFF" transform="translate(0,0)"/>
<path d="" fill="#FFFFFF" transform="translate(0,0)"/>
<path d="" fill="#FFFFFF" transform="translate(0,0)"/>
<path d="" fill="#F2A505" transform="translate(0,0)"/>
<path d="" fill="#FFFFFF" transform="translate(0,0)"/>
<path d="" fill="#F2D125" transform="translate(0,0)"/>
<path d="" fill="#FFFFFF" transform="translate(0,0)"/>
<path d="M0 0 C2 1 2 1 2 1 Z " fill="#FFFFFF" transform="translate(458,148)"/>
<path d="" fill="#FFFFFF" transform="translate(0,0)"/>
<path d="" fill="#F5BC30" transform="translate(0,0)"/>
<path d="" fill="#FFFFFF" transform="translate(0,0)"/>
<path d="" fill="#FFFFFF" transform="translate(0,0)"/>
<path d="" fill="#F5CB3B" transform="translate(0,0)"/>
<path d="" fill="#FFFFFF" transform="translate(0,0)"/>
<path d="" fill="#FFFFFF" transform="translate(0,0)"/>
<path d="" fill="#EB9F11" transform="translate(0,0)"/>
<path d="" fill="#FFFFFF" transform="translate(0,0)"/>
<path d="" fill="#FFFFFF" transform="translate(0,0)"/>
<path d="" fill="#FFFFFF" transform="translate(0,0)"/>
<path d="" fill="#FFFFFF" transform="translate(0,0)"/>
<path d="" fill="#DDA516" transform="translate(0,0)"/>
<path d="" fill="#FFFFFF" transform="translate(0,0)"/>
<path d="" fill="#FFFFFF" transform="translate(0,0)"/>
<path d="" fill="#FFFFFF" transform="translate(0,0)"/>
<path d="" fill="#FFFFFF" transform="translate(0,0)"/>
<path d="" fill="#FFFFFF" transform="translate(0,0)"/>
<path d="" fill="#FFA703" transform="translate(0,0)"/>
<path d="" fill="#FFFFFF" transform="translate(0,0)"/>
<path d="" fill="#EEA215" transform="translate(0,0)"/>
<path d="" fill="#FFFFFF" transform="translate(0,0)"/>
<path d="" fill="#FFFFFF" transform="translate(0,0)"/>
<path d="" fill="#F8C942" transform="translate(0,0)"/>
<path d="" fill="#FFFFFF" transform="translate(0,0)"/>
<path d="" fill="#FFFFFF" transform="translate(0,0)"/>
<path d="" fill="#FFFFFF" transform="translate(0,0)"/>
<path d="" fill="#FFFFFF" transform="translate(0,0)"/>
<path d="" fill="#FFFFFF" transform="translate(0,0)"/>
<path d="" fill="#FDDB2C" transform="translate(0,0)"/>
<path d="" fill="#FFFFFF" transform="translate(0,0)"/>
<path d="" fill="#FFFFFF" transform="translate(0,0)"/>
<path d="" fill="#FFFFFF" transform="translate(0,0)"/>
<path d="" fill="#FFFFFF" transform="translate(0,0)"/>
<path d="" fill="#E6A227" transform="translate(0,0)"/>
<path d="" fill="#ECA311" transform="translate(0,0)"/>
<path d="" fill="#FFFFFF" transform="translate(0,0)"/>
<path d="" fill="#FFFFFF" transform="translate(0,0)"/>
<path d="" fill="#FFFFFF" transform="translate(0,0)"/>
<path d="" fill="#FFFFFF" transform="translate(0,0)"/>
<path d="" fill="#FFFFFF" transform="translate(0,0)"/>
<path d="M0 0 C2 1 2 1 2 1 Z " fill="#FFFFFF" transform="translate(834,129)"/>
<path d="" fill="#FFFFFF" transform="translate(0,0)"/>
<path d="" fill="#FFFFFF" transform="translate(0,0)"/>
<path d="M0 0 C2 1 2 1 2 1 Z " fill="#FFFFFF" transform="translate(831,128)"/>
<path d="" fill="#FFFFFF" transform="translate(0,0)"/>
<path d="" fill="#FFFFFF" transform="translate(0,0)"/>
<path d="" fill="#FFFFFF" transform="translate(0,0)"/>
<path d="" fill="#FFFFFF" transform="translate(0,0)"/>
<path d="" fill="#FFFFFF" transform="translate(0,0)"/>
<path d="" fill="#FFFFFF" transform="translate(0,0)"/>
<path d="" fill="#F2CB32" transform="translate(0,0)"/>
<path d="" fill="#FFFFFF" transform="translate(0,0)"/>
<path d="" fill="#FFFFFF" transform="translate(0,0)"/>
<path d="" fill="#FFFFFF" transform="translate(0,0)"/>
<path d="" fill="#FFFFFF" transform="translate(0,0)"/>
<path d="" fill="#FFEE2D" transform="translate(0,0)"/>
<path d="" fill="#FFFFFF" transform="translate(0,0)"/>
<path d="M0 0 C2 1 2 1 2 1 Z " fill="#FEFEFE" transform="translate(518,124)"/>
<path d="" fill="#FFFFFF" transform="translate(0,0)"/>
<path d="" fill="#E4AB18" transform="translate(0,0)"/>
<path d="" fill="#FFFFFF" transform="translate(0,0)"/>
<path d="" fill="#FFFFFF" transform="translate(0,0)"/>
<path d="" fill="#EC9E0B" transform="translate(0,0)"/>
<path d="" fill="#FFFFFF" transform="translate(0,0)"/>
<path d="" fill="#FFFFFF" transform="translate(0,0)"/>
<path d="" fill="#FFFFFF" transform="translate(0,0)"/>
<path d="" fill="#FFFFFF" transform="translate(0,0)"/>
<path d="" fill="#F7C707" transform="translate(0,0)"/>
<path d="" fill="#FFFFFF" transform="translate(0,0)"/>
<path d="" fill="#FFFFFF" transform="translate(0,0)"/>
<path d="" fill="#F19817" transform="translate(0,0)"/>
<path d="" fill="#FFFFFF" transform="translate(0,0)"/>
<path d="" fill="#FFFFFF" transform="translate(0,0)"/>
<path d="" fill="#FFFFFF" transform="translate(0,0)"/>
<path d="" fill="#FFFFFF" transform="translate(0,0)"/>
<path d="" fill="#FFFFFF" transform="translate(0,0)"/>
<path d="" fill="#ED9C0D" transform="translate(0,0)"/>
<path d="" fill="#FFFFFF" transform="translate(0,0)"/>
<path d="" fill="#FFFFFF" transform="translate(0,0)"/>
<path d="" fill="#FFFFFF" transform="translate(0,0)"/>
<path d="" fill="#FEFEFE" transform="translate(0,0)"/>
<path d="" fill="#FFFFFF" transform="translate(0,0)"/>
<path d="" fill="#FAC539" transform="translate(0,0)"/>
<path d="" fill="#FFFFFF" transform="translate(0,0)"/>
<path d="" fill="#F1C024" transform="translate(0,0)"/>
<path d="M0 0 C2 1 2 1 2 1 Z " fill="#FFFFFF" transform="translate(843,111)"/>
<path d="" fill="#FFFFFF" transform="translate(0,0)"/>
<path d="" fill="#FFFFFF" transform="translate(0,0)"/>
<path d="" fill="#FFFFFF" transform="translate(0,0)"/>
<path d="" fill="#FFFFFF" transform="translate(0,0)"/>
<path d="" fill="#FCDC0B" transform="translate(0,0)"/>
<path d="" fill="#FFFFFF" transform="translate(0,0)"/>
<path d="" fill="#FFFFFF" transform="translate(0,0)"/>
<path d="" fill="#FFFFFF" transform="translate(0,0)"/>
<path d="" fill="#FFFFFF" transform="translate(0,0)"/>
<path d="" fill="#FFFFFF" transform="translate(0,0)"/>
<path d="" fill="#FFFFFF" transform="translate(0,0)"/>
<path d="" fill="#FFFFFF" transform="translate(0,0)"/>
<path d="" fill="#FFCC38" transform="translate(0,0)"/>
<path d="" fill="#FFFFFF" transform="translate(0,0)"/>
<path d="" fill="#FFFFFF" transform="translate(0,0)"/>
<path d="" fill="#FFFFFF" transform="translate(0,0)"/>
<path d="" fill="#FFFFFF" transform="translate(0,0)"/>
<path d="" fill="#FFFFFF" transform="translate(0,0)"/>
<path d="" fill="#FFF618" transform="translate(0,0)"/>
<path d="" fill="#FFFFFF" transform="translate(0,0)"/>
<path d="" fill="#ED990D" transform="translate(0,0)"/>
<path d="" fill="#FFFFFF" transform="translate(0,0)"/>
<path d="" fill="#FFFFFF" transform="translate(0,0)"/>
<path d="" fill="#FFFFFF" transform="translate(0,0)"/>
<path d="" fill="#FFFFFF" transform="translate(0,0)"/>
<path d="" fill="#FFFFFF" transform="translate(0,0)"/>
<path d="" fill="#FFFFFF" transform="translate(0,0)"/>
<path d="" fill="#FFFFFF" transform="translate(0,0)"/>
<path d="" fill="#FFFFFF" transform="translate(0,0)"/>
<path d="" fill="#FFFFFF" transform="translate(0,0)"/>
<path d="" fill="#FEFEFE" transform="translate(0,0)"/>
<path d="M0 0 C2 1 2 1 2 1 Z " fill="#FEFEFE" transform="translate(522,101)"/>
<path d="" fill="#FFFFFF" transform="translate(0,0)"/>
<path d="" fill="#FFFFFF" transform="translate(0,0)"/>
<path d="" fill="#FB9116" transform="translate(0,0)"/>
<path d="" fill="#FFFFFF" transform="translate(0,0)"/>
<path d="" fill="#FFFFFF" transform="translate(0,0)"/>
<path d="" fill="#FFFFFF" transform="translate(0,0)"/>
<path d="" fill="#FFFFFF" transform="translate(0,0)"/>
<path d="" fill="#FFFFFF" transform="translate(0,0)"/>
<path d="" fill="#FFFFFF" transform="translate(0,0)"/>
<path d="" fill="#FFFFFF" transform="translate(0,0)"/>
<path d="" fill="#FFFFFF" transform="translate(0,0)"/>
<path d="" fill="#F49902" transform="translate(0,0)"/>
<path d="" fill="#FFFFFF" transform="translate(0,0)"/>
<path d="" fill="#FFFFFF" transform="translate(0,0)"/>
<path d="" fill="#EE9814" transform="translate(0,0)"/>
<path d="" fill="#FFFFFF" transform="translate(0,0)"/>
<path d="" fill="#FFFFFF" transform="translate(0,0)"/>
<path d="" fill="#F3BD39" transform="translate(0,0)"/>
<path d="" fill="#F2C63F" transform="translate(0,0)"/>
<path d="" fill="#FFFFFF" transform="translate(0,0)"/>
<path d="" fill="#FFFFFF" transform="translate(0,0)"/>
<path d="" fill="#FFFFFF" transform="translate(0,0)"/>
<path d="" fill="#FFFFFF" transform="translate(0,0)"/>
<path d="" fill="#FFFFFF" transform="translate(0,0)"/>
<path d="" fill="#FFFFFF" transform="translate(0,0)"/>
<path d="" fill="#FFFFFF" transform="translate(0,0)"/>
<path d="" fill="#F7A31B" transform="translate(0,0)"/>
<path d="" fill="#FFFFFF" transform="translate(0,0)"/>
<path d="" fill="#FFFFFF" transform="translate(0,0)"/>
<path d="" fill="#FFFFFF" transform="translate(0,0)"/>
<path d="" fill="#FFFFFF" transform="translate(0,0)"/>
<path d="" fill="#FFFFFF" transform="translate(0,0)"/>
<path d="" fill="#FFFFFF" transform="translate(0,0)"/>
<path d="" fill="#FFFFFF" transform="translate(0,0)"/>
<path d="" fill="#FFFFFF" transform="translate(0,0)"/>
<path d="" fill="#FFFFFF" transform="translate(0,0)"/>
<path d="" fill="#F8C248" transform="translate(0,0)"/>
<path d="" fill="#FFFFFF" transform="translate(0,0)"/>
<path d="" fill="#FFFFFF" transform="translate(0,0)"/>
<path d="" fill="#FFFFFF" transform="translate(0,0)"/>
<path d="" fill="#FFFFFF" transform="translate(0,0)"/>
<path d="" fill="#FFFFFF" transform="translate(0,0)"/>
<path d="" fill="#FFFFFF" transform="translate(0,0)"/>
<path d="" fill="#FFFFFF" transform="translate(0,0)"/>
<path d="" fill="#FFFFFF" transform="translate(0,0)"/>
<path d="" fill="#F4D50A" transform="translate(0,0)"/>
<path d="" fill="#FFFFFF" transform="translate(0,0)"/>
<path d="" fill="#FFFFFF" transform="translate(0,0)"/>
<path d="" fill="#FFFFFF" transform="translate(0,0)"/>
<path d="" fill="#FFFFFF" transform="translate(0,0)"/>
<path d="" fill="#E9C01A" transform="translate(0,0)"/>
<path d="" fill="#FFFFFF" transform="translate(0,0)"/>
<path d="" fill="#FFFFFF" transform="translate(0,0)"/>
<path d="" fill="#FFFFFF" transform="translate(0,0)"/>
<path d="" fill="#EBD81D" transform="translate(0,0)"/>
<path d="" fill="#FFFFFF" transform="translate(0,0)"/>
<path d="" fill="#FFFFFF" transform="translate(0,0)"/>
<path d="" fill="#FFFFFF" transform="translate(0,0)"/>
<path d="" fill="#FFFFFF" transform="translate(0,0)"/>
<path d="" fill="#F6D432" transform="translate(0,0)"/>
<path d="" fill="#FFFFFF" transform="translate(0,0)"/>
<path d="" fill="#FFFFFF" transform="translate(0,0)"/>
<path d="" fill="#FFFFFF" transform="translate(0,0)"/>
<path d="" fill="#FFFFFF" transform="translate(0,0)"/>
<path d="" fill="#F9D120" transform="translate(0,0)"/>
<path d="" fill="#FFFFFF" transform="translate(0,0)"/>
<path d="" fill="#FFFFFF" transform="translate(0,0)"/>
<path d="" fill="#FFFFFF" transform="translate(0,0)"/>
<path d="" fill="#F8D03D" transform="translate(0,0)"/>
<path d="" fill="#FFFFFF" transform="translate(0,0)"/>
<path d="" fill="#FFFFFF" transform="translate(0,0)"/>
<path d="" fill="#F1C71E" transform="translate(0,0)"/>
<path d="" fill="#FFFFFF" transform="translate(0,0)"/>
<path d="" fill="#FFFFFF" transform="translate(0,0)"/>
<path d="" fill="#FFFFFF" transform="translate(0,0)"/>
<path d="" fill="#FFFFFF" transform="translate(0,0)"/>
<path d="" fill="#FFFFFF" transform="translate(0,0)"/>
<path d="" fill="#FFFFFF" transform="translate(0,0)"/>
<path d="" fill="#EBAF11" transform="translate(0,0)"/>
<path d="" fill="#FFFFFF" transform="translate(0,0)"/>
<path d="" fill="#FFFFFF" transform="translate(0,0)"/>
<path d="" fill="#FFFFFF" transform="translate(0,0)"/>
<path d="" fill="#EBA220" transform="translate(0,0)"/>
<path d="" fill="#FBCB2B" transform="translate(0,0)"/>
<path d="" fill="#FFFFFF" transform="translate(0,0)"/>
<path d="" fill="#FFFFFF" transform="translate(0,0)"/>
<path d="" fill="#FFFFFF" transform="translate(0,0)"/>
<path d="" fill="#FFFFFF" transform="translate(0,0)"/>
<path d="" fill="#E8C52A" transform="translate(0,0)"/>
<path d="M0 0 C2 1 2 1 2 1 Z " fill="#FFFFFF" transform="translate(757,68)"/>
<path d="" fill="#FFFFFF" transform="translate(0,0)"/>
<path d="" fill="#FFFFFF" transform="translate(0,0)"/>
<path d="" fill="#FDFFFF" transform="translate(0,0)"/>
<path d="" fill="#FFFFFF" transform="translate(0,0)"/>
<path d="M0 0 C2 1 2 1 2 1 Z " fill="#FFFFFF" transform="translate(454,67)"/>
<path d="M0 0 C2 1 2 1 2 1 Z " fill="#FFFFFF" transform="translate(835,66)"/>
<path d="M0 0 C2 1 2 1 2 1 Z " fill="#FFFFFF" transform="translate(761,66)"/>
<path d="" fill="#FFFFFF" transform="translate(0,0)"/>
<path d="" fill="#FFFFFF" transform="translate(0,0)"/>
<path d="M0 0 C2 1 2 1 2 1 Z " fill="#FFFFFF" transform="translate(763,65)"/>
<path d="M0 0 C2 1 2 1 2 1 Z " fill="#FFFFFF" transform="translate(530,65)"/>
<path d="" fill="#FFFFFF" transform="translate(0,0)"/>
<path d="" fill="#EE9417" transform="translate(0,0)"/>
<path d="M0 0 C2 1 2 1 2 1 Z " fill="#FFFFFF" transform="translate(376,63)"/>
<path d="" fill="#FFFFFF" transform="translate(0,0)"/>
<path d="" fill="#F0CC38" transform="translate(0,0)"/>
<path d="M0 0 C2 1 2 1 2 1 Z " fill="#FFFFFF" transform="translate(371,61)"/>
<path d="" fill="#FFFFFF" transform="translate(0,0)"/>
<path d="" fill="#FACD22" transform="translate(0,0)"/>
<path d="" fill="#FFFFFF" transform="translate(0,0)"/>
<path d="" fill="#F8D144" transform="translate(0,0)"/>
<path d="" fill="#DBA411" transform="translate(0,0)"/>
<path d="" fill="#F7C820" transform="translate(0,0)"/>
<path d="" fill="#FFFEFF" transform="translate(0,0)"/>
<path d="" fill="#F8DA04" transform="translate(0,0)"/>
<path d="" fill="#FFFFFF" transform="translate(0,0)"/>
<path d="" fill="#FFFFFF" transform="translate(0,0)"/>
<path d="" fill="#F9D40D" transform="translate(0,0)"/>
<path d="" fill="#FFFFFF" transform="translate(0,0)"/>
<path d="" fill="#FCCA2F" transform="translate(0,0)"/>
<path d="" fill="#FFFFFF" transform="translate(0,0)"/>
<path d="" fill="#FFFFFD" transform="translate(0,0)"/>
<path d="" fill="#EEA815" transform="translate(0,0)"/>
<path d="" fill="#FA9605" transform="translate(0,0)"/>
<path d="" fill="#FFFFFF" transform="translate(0,0)"/>
<path d="" fill="#F2C43E" transform="translate(0,0)"/>
<path d="" fill="#FEFFFD" transform="translate(0,0)"/>
<path d="" fill="#FFC448" transform="translate(0,0)"/>
<path d="" fill="#FFFFFF" transform="translate(0,0)"/>
<path d="" fill="#FDFFFD" transform="translate(0,0)"/>
<path d="" fill="#F5C700" transform="translate(0,0)"/>
<path d="" fill="#FFFFFF" transform="translate(0,0)"/>
<path d="" fill="#FFFFFF" transform="translate(0,0)"/>
<path d="" fill="#E89D14" transform="translate(0,0)"/>
<path d="" fill="#FFD407" transform="translate(0,0)"/>
<path d="" fill="#FFFFFE" transform="translate(0,0)"/>
<path d="" fill="#EAD82C" transform="translate(0,0)"/>
<path d="" fill="#FFFFFF" transform="translate(0,0)"/>
<path d="" fill="#FEFFFF" transform="translate(0,0)"/>
<path d="" fill="#F5DE11" transform="translate(0,0)"/>
<path d="" fill="#FFFEFF" transform="translate(0,0)"/>
<path d="" fill="#FFF32D" transform="translate(0,0)"/>
<path d="" fill="#FDFFFF" transform="translate(0,0)"/>
<path d="" fill="#F0CB2F" transform="translate(0,0)"/>
<path d="" fill="#FFFEFF" transform="translate(0,0)"/>
<path d="" fill="#E1CD2A" transform="translate(0,0)"/>
<path d="" fill="#FFFFFF" transform="translate(0,0)"/>
<path d="" fill="#E59E22" transform="translate(0,0)"/>
<path d="" fill="#FFFEFF" transform="translate(0,0)"/>
<path d="" fill="#FFC636" transform="translate(0,0)"/>
<path d="" fill="#FDFFFF" transform="translate(0,0)"/>
<path d="" fill="#F1A51A" transform="translate(0,0)"/>
<path d="" fill="#FFFEFF" transform="translate(0,0)"/>
<path d="" fill="#EF9C1A" transform="translate(0,0)"/>
<path d="" fill="#FDFFFF" transform="translate(0,0)"/>
<path d="" fill="#F59E0A" transform="translate(0,0)"/>
<path d="" fill="#FFFEFF" transform="translate(0,0)"/>
<path d="" fill="#FFFEFD" transform="translate(0,0)"/>
<path d="" fill="#FDFFFF" transform="translate(0,0)"/>
<path d="" fill="#E69921" transform="translate(0,0)"/>
<path d="" fill="#FFFFFE" transform="translate(0,0)"/>
<path d="" fill="#FFBD1F" transform="translate(0,0)"/>
<path d="" fill="#F0D735" transform="translate(0,0)"/>
<path d="" fill="#FFFFFF" transform="translate(0,0)"/>
<path d="" fill="#FEFFFF" transform="translate(0,0)"/>
<path d="" fill="#F8D323" transform="translate(0,0)"/>
<path d="M0 0 C2 1 2 1 2 1 Z " fill="#FDFFFF" transform="translate(158,5)"/>
<path d="" fill="#F7F63F" transform="translate(0,0)"/>
<path d="" fill="#FEF228" transform="translate(0,0)"/>
<path d="" fill="#E9C132" transform="translate(0,0)"/>
<path d="" fill="#FEFEFE" transform="translate(0,0)"/>
<path d="" fill="#FFB805" transform="translate(0,0)"/>
<path d="" fill="#FFFFFF" transform="translate(0,0)"/>
<path d="" fill="#FFFFFF" transform="translate(0,0)"/>
<path d="" fill="#FFFFFF" transform="translate(0,0)"/>
<path d="" fill="#FFFFFF" transform="translate(0,0)"/>
<path d="" fill="#FFFFFF" transform="translate(0,0)"/>
<path d="" fill="#FEFEFE" transform="translate(0,0)"/>
<path d="" fill="#FFFFFF" transform="translate(0,0)"/>
<path d="" fill="#FEFEFE" transform="translate(0,0)"/>
<path d="" fill="#FFFFFF" transform="translate(0,0)"/>
<path d="" fill="#FEFEFE" transform="translate(0,0)"/>
<path d="" fill="#FFFFFF" transform="translate(0,0)"/>
<path d="" fill="#FFFFFF" transform="translate(0,0)"/>
<path d="" fill="#FFFFFF" transform="translate(0,0)"/>
<path d="" fill="#FEFEFE" transform="translate(0,0)"/>
<path d="" fill="#FFFFFF" transform="translate(0,0)"/>
<path d="" fill="#FEFEFE" transform="translate(0,0)"/>
<path d="" fill="#FFFFFF" transform="translate(0,0)"/>
<path d="" fill="#FEFEFE" transform="translate(0,0)"/>
<path d="" fill="#FFFFFF" transform="translate(0,0)"/>
<path d="" fill="#FFFFFF" transform="translate(0,0)"/>
<path d="" fill="#FFFFFF" transform="translate(0,0)"/>
<path d="" fill="#FFFFFF" transform="translate(0,0)"/>
<path d="" fill="#FFFFFF" transform="translate(0,0)"/>
<path d="" fill="#FFFFFF" transform="translate(0,0)"/>
<path d="" fill="#FFFFFF" transform="translate(0,0)"/>
<path d="" fill="#FFFFFF" transform="translate(0,0)"/>
<path d="" fill="#FFFFFF" transform="translate(0,0)"/>
<path d="" fill="#FFFFFF" transform="translate(0,0)"/>
<path d="" fill="#FFFFFF" transform="translate(0,0)"/>
<path d="" fill="#FFFFFF" transform="translate(0,0)"/>
<path d="" fill="#FFFFFF" transform="translate(0,0)"/>
<path d="" fill="#FFFFFF" transform="translate(0,0)"/>
<path d="" fill="#FFFFFF" transform="translate(0,0)"/>
<path d="" fill="#FFFFFF" transform="translate(0,0)"/>
<path d="" fill="#FFFFFF" transform="translate(0,0)"/>
<path d="" fill="#FFFFFF" transform="translate(0,0)"/>
<path d="" fill="#FFFFFF" transform="translate(0,0)"/>
<path d="" fill="#FFFFFF" transform="translate(0,0)"/>
<path d="" fill="#FFFFFF" transform="translate(0,0)"/>
<path d="" fill="#FFFFFF" transform="translate(0,0)"/>
<path d="" fill="#FFFFFF" transform="translate(0,0)"/>
<path d="" fill="#FFFFFF" transform="translate(0,0)"/>
<path d="" fill="#FFFFFF" transform="translate(0,0)"/>
<path d="" fill="#FFFFFF" transform="translate(0,0)"/>
<path d="" fill="#FFFFFF" transform="translate(0,0)"/>
<path d="" fill="#FFFFFF" transform="translate(0,0)"/>
<path d="" fill="#FFFFFF" transform="translate(0,0)"/>
<path d="" fill="#FFFFFF" transform="translate(0,0)"/>
<path d="" fill="#FFFFFF" transform="translate(0,0)"/>
<path d="" fill="#FFFFFF" transform="translate(0,0)"/>
<path d="" fill="#FFFFFF" transform="translate(0,0)"/>
<path d="" fill="#FFFFFF" transform="translate(0,0)"/>
<path d="" fill="#FFFFFF" transform="translate(0,0)"/>
<path d="" fill="#FFFFFF" transform="translate(0,0)"/>
<path d="" fill="#FFFFFF" transform="translate(0,0)"/>
<path d="" fill="#FFFFFF" transform="translate(0,0)"/>
<path d="" fill="#FFFFFF" transform="translate(0,0)"/>
<path d="" fill="#FFFFFF" transform="translate(0,0)"/>
<path d="" fill="#FFFFFF" transform="translate(0,0)"/>
<path d="" fill="#FFFFFF" transform="translate(0,0)"/>
<path d="" fill="#FFFFFF" transform="translate(0,0)"/>
<path d="" fill="#FFFFFF" transform="translate(0,0)"/>
<path d="" fill="#FFFFFF" transform="translate(0,0)"/>
<path d="" fill="#FFFFFF" transform="translate(0,0)"/>
<path d="" fill="#FFFFFF" transform="translate(0,0)"/>
<path d="" fill="#FFFFFF" transform="translate(0,0)"/>
<path d="" fill="#FFFFFF" transform="translate(0,0)"/>
<path d="" fill="#FFFFFF" transform="translate(0,0)"/>
<path d="" fill="#FFFFFF" transform="translate(0,0)"/>
<path d="" fill="#FFFFFF" transform="translate(0,0)"/>
<path d="" fill="#FFFFFF" transform="translate(0,0)"/>
<path d="" fill="#FFFFFF" transform="translate(0,0)"/>
<path d="" fill="#FFFFFF" transform="translate(0,0)"/>
<path d="" fill="#FFFFFF" transform="translate(0,0)"/>
<path d="" fill="#FFFFFF" transform="translate(0,0)"/>
<path d="" fill="#FFFFFF" transform="translate(0,0)"/>
<path d="" fill="#FFFFFF" transform="translate(0,0)"/>
<path d="" fill="#FFFFFF" transform="translate(0,0)"/>
<path d="" fill="#FFFFFF" transform="translate(0,0)"/>
<path d="" fill="#FFFFFF" transform="translate(0,0)"/>
<path d="" fill="#FFFFFF" transform="translate(0,0)"/>
<path d="" fill="#FFFFFF" transform="translate(0,0)"/>
<path d="" fill="#FFFFFF" transform="translate(0,0)"/>
<path d="" fill="#FFFFFF" transform="translate(0,0)"/>
<path d="" fill="#FFFFFF" transform="translate(0,0)"/>
<path d="" fill="#FFFFFF" transform="translate(0,0)"/>
<path d="" fill="#FFFFFF" transform="translate(0,0)"/>
<path d="" fill="#FFFFFF" transform="translate(0,0)"/>
<path d="" fill="#FFFFFF" transform="translate(0,0)"/>
<path d="" fill="#FFFFFF" transform="translate(0,0)"/>
<path d="" fill="#FFFFFF" transform="translate(0,0)"/>
<path d="" fill="#FFFFFF" transform="translate(0,0)"/>
<path d="" fill="#FFFFFF" transform="translate(0,0)"/>
<path d="" fill="#FFFFFF" transform="translate(0,0)"/>
<path d="" fill="#FFFFFF" transform="translate(0,0)"/>
<path d="" fill="#FFFFFF" transform="translate(0,0)"/>
<path d="" fill="#FFFFFF" transform="translate(0,0)"/>
<path d="" fill="#FFFFFF" transform="translate(0,0)"/>
<path d="" fill="#FFFFFF" transform="translate(0,0)"/>
<path d="" fill="#FFFFFF" transform="translate(0,0)"/>
<path d="" fill="#FEFEFE" transform="translate(0,0)"/>
</svg>
